<svg width="34" height="39" viewBox="0 0 34 39" fill="none" xmlns="http://www.w3.org/2000/svg">
<g clip-path="url(#clip0_2185_19416)">
<path d="M31.3848 9.56464C28.7813 10.4645 23.7906 11.4454 16.9952 9.39817C10.1998 7.35089 6.57948 3.78205 4.92595 1.59581C4.39563 0.904751 3.30591 1.12406 3.09049 1.96214C-0.376558 14.4276 1.20049 18.0052 1.20049 18.0052C1.20049 18.0052 0.239045 22.6534 1.7037 28.1444C2.34611 30.5852 3.66535 33.0747 4.92669 35.1039C6.60206 37.8098 10.0194 38.8422 12.913 37.506C15.069 36.5093 17.5569 35.1515 19.4336 33.4725C23.6904 29.7075 25.433 25.2964 25.433 25.2964C25.433 25.2964 28.7185 23.1918 32.7125 10.8777C32.9864 10.0564 32.2019 9.27967 31.3848 9.56464Z" fill="white"/>
<path d="M16.1938 28.8658C12.8324 29.624 9.31803 28.5763 6.93784 26.0736C3.22759 22.2 1.19964 17.9859 1.19964 17.9859C1.19964 17.9859 0.238202 22.6341 1.70286 28.1252C2.38861 30.6798 3.79049 33.3008 5.09194 35.3669C6.68224 37.8835 9.88464 38.8479 12.6099 37.6344C14.8429 36.6344 17.4631 35.2133 19.4336 33.4724C23.6904 29.7075 25.433 25.2963 25.433 25.2963C25.433 25.2963 21.4267 27.6819 16.1938 28.8658Z" fill="white"/>
<path d="M12.9894 35.3646C13.3787 34.0708 12.2904 32.5996 10.5586 32.0785C8.82689 31.5573 7.10742 32.1837 6.7181 33.4774C6.32879 34.7711 7.41705 36.2423 9.14881 36.7635C10.8806 37.2846 12.6 36.6583 12.9894 35.3646Z" fill="white"/>
<path d="M21.7176 25.1702C23.4055 24.7727 24.5997 23.7117 24.3851 22.8005C24.1705 21.8892 22.6282 21.4728 20.9404 21.8704C19.2525 22.268 18.0583 23.329 18.2729 24.2402C18.4876 25.1514 20.0298 25.5678 21.7176 25.1702Z" fill="white"/>
<path opacity="0.3" d="M31.3851 9.56459C29.9218 10.0695 27.6887 10.6068 24.8162 10.6118C24.8162 10.6118 22.7564 27.2018 13.762 31.5514C6.48751 35.0769 2.46738 30.2524 2.40964 30.2548C3.09911 31.9803 4.01871 33.6768 4.90774 35.1047C6.58311 37.8106 10.0005 38.843 12.8941 37.5068C15.0501 36.51 17.538 35.1523 19.4146 33.4732C23.6715 29.7083 25.4141 25.2971 25.4141 25.2971C25.4141 25.2971 28.6996 23.1925 32.6935 10.8785C32.9867 10.0564 32.2022 9.27962 31.3851 9.56459Z" fill="white"/>
<path d="M31.1951 9.63043C28.5523 10.5127 23.6344 11.3941 16.9954 9.39813C10.3757 7.40131 6.76023 3.94795 5.04815 1.74489C4.57961 1.14763 3.63027 1.496 3.66181 2.24658C3.7139 4.40372 4.11599 7.5487 5.64531 9.99079C8.33085 14.2544 12.2133 15.3445 14.9658 16.1542C17.7191 16.9832 21.5495 18.2104 26.1477 16.147C28.7776 14.9568 30.836 12.5568 32.092 10.7881C32.5104 10.1921 31.8983 9.3888 31.1951 9.63043Z" fill="white"/>
<path d="M17.1553 16.8719L24.8044 20.4257C24.8044 20.4257 22.1592 21.2502 19.9721 20.5902C17.7851 19.9302 17.1553 16.8719 17.1553 16.8719Z" fill="black"/>
<path d="M12.7427 15.5536L4.3999 14.304C4.3999 14.304 6.14805 16.4477 8.35436 17.1068C10.5599 17.7468 12.7427 15.5536 12.7427 15.5536Z" fill="black"/>
<path d="M14.2737 22.6227C13.7971 21.833 12.8018 21.5471 11.9888 21.9283C10.9681 22.4146 9.74467 23.1215 9.69357 23.7406C9.60333 24.8048 11.8709 26.4639 11.8709 26.4639C11.8709 26.4639 14.6808 26.3459 15.2001 25.3986C15.4854 24.8468 14.8538 23.5816 14.2737 22.6227Z" fill="white"/>
<path d="M12.0724 25.7614C10.5494 25.3049 9.69238 23.7214 9.69238 23.7214C9.69238 23.7214 9.98853 26.6394 11.6671 27.128C13.3457 27.6166 15.1989 25.3794 15.1989 25.3794C15.1989 25.3794 13.5954 26.218 12.0724 25.7614Z" fill="white"/>
<path d="M10.8718 29.7642C14.0742 30.7286 15.6223 34.076 15.6223 34.076C15.6223 34.076 15.3102 28.9414 11.4638 27.7921C7.6366 26.6419 4.53144 30.744 4.53144 30.744C4.53144 30.744 7.66945 28.7998 10.8718 29.7642Z" fill="black"/>
<path d="M3.45095 16.5031C2.76474 17.1489 3.17667 18.6933 4.36717 19.9543C5.55767 21.2153 7.06385 21.7303 7.75006 21.0846C8.43627 20.4388 8.02434 18.8944 6.83384 17.6334C5.64334 16.3724 4.13716 15.8573 3.45095 16.5031Z" fill="white"/>
</g>
<defs>
<clipPath id="clip0_2185_19416">
<rect width="32.3614" height="37.2156" fill="white" transform="translate(0 1.35938) rotate(-2.40641)"/>
</clipPath>
</defs>
</svg>
