<svg width="30" height="38" viewBox="0 0 30 38" fill="none" xmlns="http://www.w3.org/2000/svg">
<g clip-path="url(#clip0_2185_19311)">
<path d="M13.2256 17.5747C13.1317 19.8503 14.4128 19.775 14.7929 19.4618C15.0747 19.2319 15.4334 17.5033 15.0576 16.8571C14.6818 16.2109 13.2854 16.1832 13.2256 17.5787V17.5747Z" fill="white"/>
<path d="M15.9711 17.317C15.8772 19.5927 17.0558 19.4777 17.5384 19.2041C17.8587 19.0218 18.179 17.2457 17.8032 16.5994C17.4274 15.9532 16.0266 15.9255 15.9711 17.321V17.317Z" fill="white"/>
<path d="M18.6445 16.7462C18.5505 19.0218 19.7292 18.9068 20.2117 18.6333C20.532 18.4509 20.8523 16.6748 20.4765 16.0286C20.1007 15.3824 18.7 15.3546 18.6445 16.7501V16.7462Z" fill="white"/>
<path d="M23.4447 7.59209C23.6924 12.0482 19.2297 15.8898 13.4774 16.1634C11.0219 16.2823 8.72865 15.7313 6.88808 14.7124C4.41548 13.3486 2.75427 11.1443 2.61335 8.59115C2.36566 4.12709 6.82829 0.289428 12.5806 0.0158755C15.6895 -0.130812 18.5336 0.788958 20.5365 2.37477C22.2404 3.71478 23.3294 5.53846 23.4447 7.58812V7.59209Z" fill="white"/>
<path d="M12.2431 14.6172C12.3713 16.9523 12.2517 17.8404 14.0367 18.0743C15.8218 18.3042 20.4552 17.7056 21.194 16.3418C21.9371 14.978 21.7748 10.8747 20.814 9.499C19.8531 8.1233 11.893 8.3136 12.2431 14.6212V14.6172Z" fill="white"/>
<path d="M16.121 7.75461C16.8256 9.16994 16.3901 10.7518 15.1431 11.287C13.8961 11.8222 12.316 11.1086 11.6114 9.69326C10.9068 8.27793 11.3424 6.69608 12.5893 6.16087C13.8363 5.62566 15.4164 6.33927 16.121 7.75461Z" fill="black"/>
<path d="M17.4149 8.09158C18.0854 9.43556 19.4733 10.1611 20.5195 9.71308C21.5658 9.26508 21.869 7.8101 21.1985 6.46613C20.5281 5.12215 19.1402 4.39664 18.0939 4.84463C17.0476 5.29263 16.7444 6.74761 17.4149 8.09158Z" fill="black"/>
<path d="M16.8765 12.1354C17.0559 11.6319 17.1712 11.1442 17.2139 10.6685C17.2651 10.1373 17.9783 9.92714 18.3242 10.3513C18.7043 10.8231 19.0117 11.3187 19.2167 11.6874C19.3875 11.9966 19.2295 12.3693 18.8793 12.4882C18.5462 12.6032 18.1107 12.742 17.6238 12.8649C17.1498 12.9838 16.7185 12.5636 16.8765 12.1314V12.1354Z" fill="black"/>
<path d="M29.0819 24.0924C32.383 30.9669 26.067 40.9496 21.5446 36.7551C17.0222 32.5567 21.0706 30.2097 22.0613 23.3669C23.0606 16.4607 25.7809 17.2219 29.0819 24.0964V24.0924ZM25.6912 26.7923C22.0869 28.3345 23.415 31.7916 24.7303 32.1285C26.0456 32.4655 28.514 25.5831 25.6912 26.7923Z" fill="white"/>
<path d="M16.4628 29.9678C13.5845 27.6882 11.6884 23.1766 15.1091 21.6661C23.7055 17.8721 19.3411 32.2474 16.4628 29.9678ZM16.181 24.247C15.1475 24.9844 16.6934 27.046 17.539 26.043C18.3845 25.0399 17.4066 23.3709 16.181 24.247Z" fill="white"/>
<path d="M1.62287 34.3804L0.0214451 20.4728C-0.239053 18.1932 1.8065 16.4964 4.27483 16.4964C6.74315 16.4964 9.2371 17.0673 10.356 19.6641C11.2912 21.8287 8.97233 24.0211 7.83639 24.9924C7.20863 25.5276 7.50757 26.4949 8.34885 26.6178C11.2698 27.046 14.998 28.5287 14.7759 33.3258C14.5197 38.8207 8.28052 38.3053 4.57803 37.5044C2.97661 37.1595 1.79369 35.8948 1.6186 34.3764L1.62287 34.3804ZM3.25846 20.568C2.11397 21.6305 4.45846 23.577 5.70543 22.4194C6.95241 21.2618 3.98016 19.894 3.25846 20.568ZM6.00863 30.9669C4.46273 32.4021 8.02002 35.6807 10.104 33.1553C12.1923 30.6299 8.15241 28.9728 6.00863 30.9669Z" fill="white"/>
</g>
<defs>
<clipPath id="clip0_2185_19311">
<rect width="30" height="38" rx="5" fill="white"/>
</clipPath>
</defs>
</svg>
