<svg width="39" height="37" viewBox="0 0 39 37" fill="none" xmlns="http://www.w3.org/2000/svg">
<g clip-path="url(#clip0_2185_19357)">
<path d="M38.1901 1.66559H2.48828V35.8103H38.1901V1.66559Z" fill="white"/>
<path d="M12.7878 8.44696C10.4732 11.1238 4.86047 14.1576 9.14237 17.9052C13.4243 21.6527 15.7388 23.4373 13.1928 25.7572C10.6468 28.0772 18.4005 29.8023 19.037 25.6383C19.6735 21.4743 21.4673 19.1544 23.6661 18.9164C25.8649 18.6785 25.4599 16.0611 25.5756 13.3843C25.6913 10.7669 29.6839 9.5177 29.2789 8.03056C28.8738 6.54342 26.5014 3.7476 24.2447 5.88908C21.9881 8.03056 20.0207 8.2685 18.4005 6.60291C16.7803 4.93731 14.9866 5.88908 12.7878 8.44696Z" fill="#FAFAFA"/>
<path d="M15.4495 28.4341C14.2344 28.4341 12.7299 28.0177 12.3828 27.0659C12.267 26.709 12.267 26.1736 12.9035 25.5193C13.54 24.9244 13.8872 24.3891 13.8872 23.7942C13.8872 22.426 12.0934 20.8794 9.37386 18.5L8.91095 18.0836C7.81154 17.1318 7.23291 16.1206 7.23291 15.1093C7.23291 13.1463 9.08454 11.4212 10.7626 9.93408C11.3991 9.33922 12.0356 8.80385 12.4985 8.26848C14.1765 6.36495 15.3917 5.53215 16.5489 5.53215C17.2433 5.53215 17.8798 5.82958 18.4584 6.42443C19.9629 7.97106 21.7566 7.73311 23.8976 5.71061C24.4762 5.11575 25.1706 4.87781 25.865 4.87781C27.7166 4.87781 29.1632 6.90032 29.4525 8.03054C29.6839 8.92282 28.8739 9.57716 27.948 10.41C26.9644 11.2428 25.8071 12.1945 25.7492 13.5032C25.7492 13.9791 25.7492 14.3955 25.6914 14.8714C25.6914 17.0723 25.6335 19.0948 23.5504 19.3328C21.4095 19.5707 19.7893 22.0096 19.2107 25.8167C18.9792 27.7203 17.1276 28.4341 15.4495 28.4341ZM16.6068 6.06752C15.681 6.06752 14.5237 6.84083 12.9614 8.6254C12.4406 9.16077 11.862 9.75562 11.1676 10.3505C9.60531 11.7781 7.81155 13.3842 7.81155 15.1093C7.81155 16.0016 8.27445 16.8344 9.25813 17.6672L9.72104 18.0836C12.5564 20.5225 14.408 22.1881 14.4658 23.7942C14.4658 24.5675 14.1187 25.2813 13.3086 25.9952C12.9614 26.2926 12.8457 26.59 12.9035 26.8875C13.135 27.4228 14.2344 27.8987 15.3917 27.8987C16.7804 27.8987 18.3427 27.3039 18.632 25.6383C19.2685 21.4743 21.0623 18.9759 23.4926 18.6785C24.997 18.5 25.0549 17.0723 25.1127 14.8119C25.1127 14.3955 25.1127 13.9196 25.1706 13.4437C25.2285 11.8971 26.5593 10.7669 27.543 9.93408C28.3531 9.27974 28.9896 8.68488 28.8739 8.209C28.6424 7.25723 27.3694 5.53215 25.865 5.53215C25.3442 5.53215 24.8234 5.77009 24.3026 6.24597C21.9302 8.50643 19.7893 8.68488 18.0534 6.9598C17.5905 6.30546 17.1276 6.06752 16.6068 6.06752Z" fill="black"/>
<path d="M21.2942 24.627C20.542 26.1141 21.3521 29.1479 24.4767 29.3263C27.6013 29.5048 26.5598 29.3263 28.3535 30.8135C30.1473 32.3006 32.2304 29.8617 31.131 28.553C29.858 27.0064 28.3535 27.1254 27.3699 25.3408C26.6176 24.2106 23.088 21.2363 21.2942 24.627Z" fill="#FAFAFA"/>
<path d="M29.5684 31.5868C29.1055 31.5868 28.5848 31.4083 28.1797 31.0514C27.7747 30.6945 27.4854 30.4566 27.3118 30.2781C26.791 29.7427 26.791 29.7427 25.1708 29.6833L24.4765 29.6238C23.0299 29.5643 21.8726 28.8505 21.2361 27.6607C20.6575 26.6495 20.5996 25.3408 21.0625 24.4485C21.8147 23.0209 22.8563 22.7234 23.5506 22.7234C25.2287 22.7234 27.0225 24.3296 27.5432 25.2218C28.064 26.1141 28.7584 26.5305 29.4527 26.9469C30.0892 27.3038 30.7257 27.6607 31.3043 28.3746C31.7094 28.9099 31.8251 29.5643 31.5358 30.2781C31.1308 31.0514 30.3785 31.5868 29.5684 31.5868ZM23.5506 23.3778C22.7406 23.3778 22.0462 23.8537 21.5254 24.8054C21.1782 25.5193 21.2361 26.59 21.699 27.4228C22.2198 28.4341 23.2035 28.9694 24.4765 29.0884L25.1708 29.1479C26.8489 29.2669 26.9646 29.2669 27.6589 29.9212C27.8325 30.0997 28.1219 30.3376 28.5269 30.6945C28.8741 30.9919 29.2213 31.1109 29.5684 31.1109C30.1471 31.1109 30.7257 30.6945 31.015 30.0997C31.2465 29.6238 31.1886 29.2074 30.8993 28.8505C30.3785 28.1961 29.742 27.8392 29.2213 27.5418C28.469 27.1254 27.7168 26.6495 27.0803 25.6382C26.6174 24.8054 24.9972 23.3778 23.5506 23.3778Z" fill="black"/>
<path d="M18.5394 10.0127L17.9604 11.0429L23.522 14.3463L24.101 13.3162L18.5394 10.0127Z" fill="#ACACAC"/>
<path d="M22.3433 9.07295L18.7407 14.5395L19.6988 15.2068L23.3014 9.74026L22.3433 9.07295Z" fill="#ACACAC"/>
<path d="M23.4346 11.7782L23.3188 11.1833C23.4924 11.1238 23.7239 11.1238 23.8975 11.0643L23.9553 11.6592C23.7818 11.7187 23.5503 11.7187 23.4346 11.7782Z" fill="#ACACAC"/>
<path d="M27.6007 33.9067L27.5428 33.3119C27.9479 33.3119 28.2951 33.3119 28.6422 33.2524L28.7001 33.8473C28.4108 33.9067 28.0057 33.9067 27.6007 33.9067ZM26.3856 33.8473H26.1541C25.8069 33.7878 25.5176 33.7878 25.2283 33.7283L25.2862 33.1334C25.5755 33.1929 25.9226 33.1929 26.212 33.2524H26.3856V33.8473ZM18.6318 33.6093L18.2847 33.1334C18.6318 32.8955 18.979 32.717 19.4419 32.6576L19.5577 33.2524C19.2105 33.3119 18.9212 33.4309 18.6318 33.6093ZM29.9152 33.6093L29.7416 33.0145C30.0888 32.8955 30.436 32.7765 30.7832 32.6576L31.0146 33.1929C30.7253 33.3714 30.3203 33.4904 29.9152 33.6093ZM24.071 33.5498L22.9137 33.4309L22.9716 32.836L24.1289 32.955L24.071 33.5498ZM21.8143 33.3119C21.4093 33.2524 21.0043 33.2524 20.6571 33.2524V32.6576C21.0043 32.6576 21.4093 32.717 21.8143 32.7765V33.3119ZM32.114 32.5981L31.7669 32.1222C32.0562 31.8842 32.3455 31.6463 32.577 31.3489L32.982 31.7653C32.6927 32.0627 32.4034 32.3601 32.114 32.5981ZM33.7342 30.754L33.2713 30.4566C33.4449 30.1592 33.6185 29.8022 33.7921 29.4453L34.3129 29.6833C34.0814 30.0402 33.9078 30.4566 33.7342 30.754ZM34.7179 28.5531L34.1393 28.3746C34.255 28.0177 34.3129 27.6608 34.4286 27.2444L35.0072 27.3633C34.8915 27.7797 34.8336 28.1961 34.7179 28.5531ZM35.1808 26.1736L34.6022 26.1141C34.66 25.7572 34.7179 25.3408 34.7179 24.9244L35.2965 24.9839C35.2965 25.4003 35.2387 25.8167 35.1808 26.1736ZM35.3544 23.7942H34.7758C34.7758 23.5563 34.7758 23.2588 34.7758 23.0209V22.6045H35.3544V23.0209C35.4123 23.2588 35.4123 23.4968 35.3544 23.7942ZM34.7179 21.4743C34.66 21.1174 34.6022 20.701 34.4864 20.4035L35.0072 20.2251C35.1229 20.582 35.2387 20.9984 35.2965 21.4148L34.7179 21.4743ZM28.5844 21.2363C28.1793 21.1174 27.7743 20.9389 27.4271 20.6415L27.7743 20.1656C28.0636 20.4035 28.3529 20.5225 28.7001 20.6415L28.5844 21.2363ZM29.8574 21.2363L29.7416 20.6415C30.0888 20.582 30.3781 20.4035 30.7253 20.2251L31.0146 20.7604C30.6096 20.9984 30.2624 21.1174 29.8574 21.2363ZM31.9983 20.0466L31.5933 19.6302C31.8826 19.3923 32.114 19.0949 32.3455 18.7974L32.8084 19.1543C32.577 19.4518 32.2876 19.7492 31.9983 20.0466ZM26.617 19.6897C26.3856 19.3328 26.3277 18.9759 26.3277 18.619C26.3277 18.5595 26.3277 18.4405 26.3277 18.381L26.9063 18.4405C26.9063 18.5 26.9063 18.5595 26.9063 18.619C26.9063 18.8569 26.9642 19.0949 27.1378 19.3923L26.617 19.6897ZM34.0235 19.3328C33.8499 19.0354 33.6185 18.7379 33.3292 18.4405L33.7342 18.0241C34.0235 18.3215 34.255 18.6785 34.4864 19.0354L34.0235 19.3328ZM33.4449 18.0241L32.9241 17.7862C33.0977 17.4293 33.2135 17.0723 33.2713 16.7154L33.8499 16.8344C33.7342 17.2508 33.6185 17.6672 33.4449 18.0241ZM32.5191 17.7862C32.2298 17.6077 31.8826 17.4293 31.5354 17.3103L31.709 16.7749C32.114 16.8939 32.4612 17.0723 32.8084 17.3103L32.5191 17.7862ZM27.3692 17.6672L27.0221 17.1913C27.3114 16.9534 27.7164 16.7749 28.1215 16.5965L28.2951 17.1913C27.9479 17.3103 27.6586 17.4887 27.3692 17.6672ZM30.4939 17.0723C30.1467 17.0129 29.7416 17.0129 29.3945 17.0129L29.3366 16.418C29.7416 16.418 30.1467 16.418 30.5517 16.4775L30.4939 17.0723ZM33.3292 15.6447C33.2713 15.2878 33.2134 14.9309 33.0399 14.6334L33.5606 14.336C33.7342 14.6929 33.8499 15.1093 33.9078 15.5852L33.3292 15.6447ZM32.4034 13.7412C32.1719 13.5032 31.8826 13.2653 31.5354 13.0273L31.8247 12.5514C32.1719 12.7894 32.5191 13.0273 32.7505 13.3248L32.4034 13.7412ZM30.6096 12.492C30.2624 12.373 29.9152 12.1945 29.568 12.0756L29.7416 11.4807C30.1467 11.5997 30.4939 11.7186 30.841 11.8971L30.6096 12.492ZM28.4686 11.8376C28.1215 11.7781 27.7164 11.7186 27.3692 11.6592L27.4271 11.0643C27.8321 11.1238 28.2372 11.1833 28.5844 11.2428L28.4686 11.8376ZM25.0547 11.5997V11.0048C25.4019 11.0048 25.8069 11.0048 26.212 11.0048V11.5997C25.8069 11.5402 25.4597 11.5402 25.0547 11.5997Z" fill="#ACACAC"/>
<path d="M17.6482 34.9775L17.1274 34.6801C17.2432 34.5016 17.301 34.3232 17.4168 34.1447L17.9375 34.5016C17.8218 34.6206 17.7639 34.7991 17.6482 34.9775Z" fill="#ACACAC"/>
<path d="M2.48807 30.8135L4.22397 27.9582L1.73584 25.8762L2.48807 30.8135Z" fill="#FFA372"/>
<path d="M1.73584 21.7717L4.22397 21.1174L1.73584 19.5707V21.7717Z" fill="#FFA372"/>
<path d="M1.73586 18.7974L2.95099 16.3585L1.27295 12.7894L1.73586 18.7974Z" fill="#FFA372"/>
<path d="M1.73591 9.87458L3.58754 8.03053L2.95104 6.42442L4.22404 4.81831L1.273 2.55786L0 6.18648L1.73591 9.87458Z" fill="#FFA372"/>
<path d="M4.22412 36.6431L6.4808 33.3119L7.86952 37L4.22412 36.6431Z" fill="#FFA372"/>
<path d="M10.7046 36.5241L12.3826 34.8585L14.5814 36.5241H10.7046Z" fill="#FFA372"/>
<path d="M21.6987 36.5241L23.3768 34.2637L23.724 36.5241H21.6987Z" fill="#FFA372"/>
<path d="M32.4033 36.5241L33.9656 33.8473L35.1229 35.156L35.7594 34.8585L37.206 36.5241H32.4033Z" fill="#FFA372"/>
<path d="M38.9999 30.3971L36.1646 29.2074L38.9999 28.3746V30.3971Z" fill="#FFA372"/>
<path d="M38.9999 21.2958L36.1646 19.9871L38.9999 18.7974V21.2958Z" fill="#FFA372"/>
<path d="M38.9998 15.2878L37.2061 12.7894L38.9998 12.1351V15.2878Z" fill="#FFA372"/>
<path d="M38.5948 9.22029L36.1646 7.9116L38.5948 7.25726V9.22029Z" fill="#FFA372"/>
<path d="M38.595 3.68811L37.3799 4.16399L38.595 4.99679V3.68811Z" fill="#FFA372"/>
<path d="M7.29102 0L9.60556 3.6881L10.705 2.31994L11.3415 3.03376L12.6145 0.654341L7.29102 0Z" fill="#FFA372"/>
<path d="M19.5581 0L21.0047 3.33119L21.6991 0.832797L19.5581 0Z" fill="#FFA372"/>
<path d="M27.8901 0.832825L28.9895 3.33122L29.9154 0.832825H27.8901Z" fill="#FFA372"/>
<path d="M8.91068 29.8617C8.91068 32.1817 8.38991 34.0852 8.38991 34.0852C8.38991 34.0852 7.86914 32.1817 7.86914 29.8617C7.86914 27.5418 8.38991 25.6382 8.38991 25.6382C8.38991 25.6382 8.91068 27.5418 8.91068 29.8617Z" fill="black"/>
<path d="M8.39005 29.3264C10.6467 29.3264 12.4984 29.8617 12.4984 29.8617C12.4984 29.8617 10.6467 30.3971 8.39005 30.3971C6.13337 30.3971 4.28174 29.8617 4.28174 29.8617C4.28174 29.8617 6.13337 29.3264 8.39005 29.3264Z" fill="black"/>
</g>
<defs>
<clipPath id="clip0_2185_19357">
<rect width="39" height="37" fill="white"/>
</clipPath>
</defs>
</svg>
