<svg width="28" height="28" viewBox="0 0 28 28" fill="none" xmlns="http://www.w3.org/2000/svg">
<circle cx="14" cy="14" r="14" fill="#FBFBFB"/>
<path d="M11.4261 22.137C11.282 21.9617 11.2066 21.7571 11.2001 21.5233C11.1936 21.2895 11.2689 21.085 11.4261 20.9096L17.6152 14.0057L11.4261 7.10178C11.282 6.94105 11.2066 6.74014 11.2001 6.49905C11.1936 6.25796 11.2689 6.04975 11.4261 5.87441C11.5701 5.69907 11.7502 5.60775 11.9664 5.60044C12.1825 5.59314 12.3692 5.67715 12.5264 5.85249L19.4229 13.5454C19.4884 13.6185 19.5342 13.6916 19.5604 13.7646C19.5866 13.8377 19.5997 13.918 19.5997 14.0057C19.5997 14.0934 19.5866 14.1737 19.5604 14.2468C19.5342 14.3199 19.4884 14.3929 19.4229 14.466L12.5264 22.1589C12.3823 22.3196 12.2022 22.4 11.986 22.4C11.7699 22.4 11.5832 22.3123 11.4261 22.137Z" fill="#E87249" stroke="#E87249" stroke-linecap="round"/>
</svg>
