<svg width="466" height="271" viewBox="0 0 466 271" fill="none" xmlns="http://www.w3.org/2000/svg">
<path d="M44.8693 81.038L181.837 69.5303C199.032 68.0776 211.703 54.747 210.046 39.9066L209.427 34.4661C207.77 19.6258 192.345 8.6308 175.15 10.0835L38.1825 21.5912C20.9877 23.0439 8.31643 36.3746 9.97409 51.2149L10.5922 56.6554C12.2499 71.4957 27.6746 82.4907 44.8693 81.038V81.038Z" fill="white" stroke="white" stroke-width="7" stroke-miterlimit="10"/>
<path d="M437.764 206.853C427.565 206.853 419.276 215.256 419.276 225.567C419.276 235.879 427.565 244.31 437.764 244.31C447.962 244.31 456.166 235.907 456.166 225.567C456.166 215.228 447.934 206.853 437.764 206.853ZM441.528 222.149C441.472 223.602 439.309 224.001 438.157 224.001H437.904L437.679 220.44H438.157C439.702 220.44 441.528 220.782 441.528 222.092V222.149V222.149Z" fill="white" stroke="white" stroke-width="7" stroke-miterlimit="10"/>
<path d="M243.761 113.054C243.761 113.054 241.738 149.144 239.518 178.056C238.282 194.89 238.704 204.945 229.179 205.742H228.392C217.041 205.742 217.463 186.259 216.648 169.453C215.637 149.97 212.996 113.254 212.996 113.254H174.982C174.982 113.254 167.902 160.025 167.902 193.865V195.688L168.098 199.39V201.242C169.925 248.611 209.147 243.684 232.438 244.31H236.681C259.129 244.31 287.45 239.183 288.461 207.395C288.658 203.891 288.658 200.416 288.658 196.941C288.658 159 283.208 113.453 283.208 113.453L243.761 113.054V113.054Z" fill="white" stroke="white" stroke-width="7" stroke-miterlimit="10"/>
<path d="M388.596 176.005C388.596 176.005 401.126 168.827 401.548 150.996V150.17C401.548 116.131 349.542 114.051 315.967 114.051C307.876 114.051 302.397 114.279 302.397 114.279L292.479 242.658C292.479 242.658 306.05 244.31 323.834 244.31C358.645 244.31 410.23 238.158 411.662 202.267C411.662 180.107 388.596 176.005 388.596 176.005V176.005Z" fill="white" stroke="white" stroke-width="7" stroke-miterlimit="10"/>
<path d="M113.901 82.6901L111.26 145.242L75.0444 145.042L72.8248 82.6901H31.5518L21.8306 244.31L81.7313 243.285L78.8936 178.483H107.804L104.995 243.285H163.238L154.359 83.7155L113.901 82.6901Z" fill="white" stroke="white" stroke-width="7" stroke-miterlimit="10"/>
<path d="M113.873 87.4185L111.26 149.97L75.0444 149.771L72.7967 87.4185H31.5518L21.8306 249.039L81.7031 248.013L78.8935 183.183H107.804L104.967 248.013H163.238L154.331 88.4439L113.873 87.4185Z" fill="#D95204"/>
<path d="M243.761 117.754C243.761 117.754 241.738 153.844 239.518 182.784C238.31 199.59 238.703 209.645 229.207 210.471H228.392C217.07 210.471 217.463 190.988 216.648 174.153C215.637 154.67 212.996 117.954 212.996 117.954H174.954C174.954 117.954 167.873 164.725 167.873 198.564V200.416L168.07 204.119V205.97C169.896 253.34 209.146 248.44 232.41 249.039H236.652C259.101 249.039 287.422 243.911 288.433 212.123C288.63 208.648 288.63 205.144 288.63 201.669C288.63 163.728 283.179 118.182 283.179 118.182L243.733 117.783L243.761 117.754Z" fill="#D95204"/>
<path d="M388.596 180.733C388.596 180.733 401.126 173.555 401.548 155.724V154.898C401.548 120.859 349.542 118.78 315.967 118.78C307.876 118.78 302.397 119.008 302.397 119.008L292.479 247.386C292.479 247.386 306.05 249.039 323.834 249.039C358.645 249.039 410.23 242.886 411.662 206.996C411.662 184.835 388.596 180.733 388.596 180.733V180.733ZM358.786 215.114L352.071 227.533L345.356 215.114L333.106 208.334L345.356 201.527L352.071 189.107L358.786 201.527L371.036 208.334L358.786 215.114ZM358.786 166.292L352.071 178.711L345.356 166.292L333.106 159.484L345.356 152.705L352.071 140.285L358.786 152.705L371.036 159.484L358.786 166.292Z" fill="#D95204"/>
<path d="M456.166 230.296C456.166 240.607 447.934 249.039 437.764 249.039C427.593 249.039 419.276 240.636 419.276 230.296C419.276 219.956 427.565 211.553 437.764 211.553C447.962 211.553 456.166 219.956 456.166 230.296ZM425.963 230.296C425.963 236.847 431.301 242.259 437.764 242.259C444.226 242.259 449.508 236.847 449.508 230.296C449.508 223.745 444.254 218.333 437.764 218.333C431.273 218.333 425.963 223.745 425.963 230.296ZM436.696 221.409C440.264 221.409 446.529 221.551 446.867 226.479V226.764C446.867 229.897 443.355 231.492 442.961 231.549L446.67 235.936L441.276 239.212L438.241 235.252L438.522 238.813L430.711 239.212L432.004 221.58C432.004 221.58 434.223 221.437 436.724 221.437L436.696 221.409ZM438.185 228.729C439.337 228.729 441.5 228.331 441.557 226.878V226.821C441.557 225.511 439.73 225.169 438.185 225.169H437.707L437.904 228.729H438.185Z" fill="#400D73"/>
<path d="M16.9138 45.5181C18.2624 54.1203 26.1574 56.3991 30.9337 57.8518C32.9004 58.45 35.8505 58.5924 36.1314 60.3299V60.5008C36.2438 61.7826 32.7599 62.4663 29.866 62.9505L22.1677 64.2038L24.6402 79.9556L39.8682 77.506C44.5883 76.6799 55.602 74.4582 53.86 61.7542L53.8038 61.3269C52.4552 52.7246 46.8079 50.4459 42.2845 48.7083C39.1658 47.4835 32.7037 46.2017 32.3385 43.7805V43.7236C31.9451 40.9606 37.4519 40.3624 39.812 39.8782C40.5706 39.7073 41.8911 39.4794 43.2397 39.2515C46.0212 38.7958 49.1118 38.3685 49.1118 38.3685L47.2574 27.7723C47.2574 27.7723 41.554 28.6269 36.581 29.4244C34.0804 29.8232 31.7766 30.1935 30.428 30.4784C24.4154 31.6462 15.3404 34.9504 16.9138 45.4041V45.5181V45.5181Z" fill="#400D73"/>
<path d="M51.9214 42.6126L61.5864 41.0459L64.4522 70.4703L81.2817 67.3655L75.2411 39.0236L84.8218 37.286L83.3608 28.0001L50.4604 33.2982L51.9214 42.6126Z" fill="#400D73"/>
<path d="M85.7771 48.8507C87.8281 61.8396 97.3245 65.0868 107.58 63.4917L108.001 63.4347C119.97 61.4978 126.601 55.4306 124.55 42.4133L124.437 41.8151C121.712 26.3766 110.389 23.6421 102.157 24.9809H101.988C89.3171 27.1741 83.726 36.0897 85.749 48.8792L85.7771 48.8507ZM103.646 35.3776H103.758C106.147 35.0358 108.731 36.7734 109.434 41.3878C110.221 46.3726 108.675 48.8507 105.95 49.278H105.838C103.337 49.6483 101.005 48.2241 100.134 42.6981C99.3755 37.8843 101.455 35.7194 103.646 35.3491V35.3776Z" fill="#400D73"/>
<path d="M143.121 49.0501L151.859 59.0196L162.282 50.0755L151.915 39.4223C152.702 39.109 159.669 34.7224 158.602 27.9432L158.518 27.345C156.214 16.9482 142.868 18.5433 135.085 19.7966C129.747 20.6512 124.999 21.7905 124.999 21.7905L128.23 60.1305L144.722 56.4845L143.065 49.0501H143.121ZM140.143 35.2351L138.513 27.5444L139.216 27.4304C142.587 26.8892 146.802 27.0032 147.279 29.9371V29.994C147.729 33.1843 143.177 34.7224 140.677 35.1212L140.143 35.2067V35.2351Z" fill="#400D73"/>
<path d="M171.554 53.3227L188.524 50.3888L185.181 38.3685L191.558 10.7386L179.955 12.6186L176.33 28.8262L167.564 14.6125L156.27 16.4355L170.543 40.049L171.554 53.3227Z" fill="#400D73"/>
</svg>
