<svg width="20" height="20" viewBox="0 0 20 20" fill="none" xmlns="http://www.w3.org/2000/svg">
<circle cx="10" cy="10" r="10" fill="#FBFBFB"/>
<path d="M9.17757 11.7787C9.17757 11.224 9.30023 10.7653 9.54557 10.4027C9.80157 10.04 10.1696 9.63999 10.6496 9.20266C11.0016 8.88266 11.2576 8.61599 11.4176 8.40266C11.5882 8.17866 11.6736 7.92799 11.6736 7.65066C11.6736 7.25599 11.5136 6.94666 11.1936 6.72266C10.8842 6.48799 10.4682 6.37066 9.94557 6.37066C9.44423 6.37066 8.99623 6.47732 8.60157 6.69066C8.21757 6.89332 7.89223 7.18132 7.62557 7.55466L5.68957 6.41866C6.13757 5.73599 6.74023 5.20799 7.49757 4.83466C8.26557 4.46132 9.17223 4.27466 10.2176 4.27466C11.4442 4.27466 12.4256 4.53599 13.1616 5.05866C13.9082 5.58132 14.2816 6.30666 14.2816 7.23466C14.2816 7.67199 14.2069 8.05599 14.0576 8.38666C13.9189 8.71732 13.7429 8.99999 13.5296 9.23466C13.3269 9.45866 13.0602 9.71999 12.7296 10.0187C12.3349 10.3707 12.0469 10.6693 11.8656 10.9147C11.6842 11.1493 11.5936 11.4373 11.5936 11.7787H9.17757ZM10.3936 15.7947C9.95623 15.7947 9.58823 15.656 9.28957 15.3787C9.00157 15.0907 8.85757 14.744 8.85757 14.3387C8.85757 13.9333 9.00157 13.5973 9.28957 13.3307C9.57757 13.0533 9.94557 12.9147 10.3936 12.9147C10.8416 12.9147 11.2096 13.0533 11.4976 13.3307C11.7856 13.5973 11.9296 13.9333 11.9296 14.3387C11.9296 14.744 11.7802 15.0907 11.4816 15.3787C11.1936 15.656 10.8309 15.7947 10.3936 15.7947Z" fill="#D85B2F"/>
</svg>
