<svg width="28" height="28" viewBox="0 0 28 28" fill="none" xmlns="http://www.w3.org/2000/svg">
<circle r="14" transform="matrix(-1 0 0 1 14 14)" fill="#FBFBFB"/>
<path d="M16.5739 22.137C16.718 21.9617 16.7934 21.7571 16.7999 21.5233C16.8064 21.2895 16.7311 21.085 16.5739 20.9096L10.3848 14.0057L16.5739 7.10178C16.718 6.94105 16.7934 6.74014 16.7999 6.49905C16.8064 6.25796 16.7311 6.04975 16.5739 5.87441C16.4299 5.69907 16.2498 5.60775 16.0336 5.60044C15.8175 5.59314 15.6308 5.67715 15.4736 5.85249L8.57712 13.5454C8.51163 13.6185 8.46579 13.6916 8.43959 13.7646C8.41339 13.8377 8.40029 13.918 8.40029 14.0057C8.40029 14.0934 8.41339 14.1737 8.43959 14.2468C8.46579 14.3199 8.51163 14.3929 8.57712 14.466L15.4736 22.1589C15.6177 22.3196 15.7978 22.4 16.014 22.4C16.2301 22.4 16.4168 22.3123 16.5739 22.137Z" fill="#E87249" stroke="#E87249" stroke-linecap="round"/>
</svg>
