<svg width="48" height="32" viewBox="0 0 48 32" fill="none" xmlns="http://www.w3.org/2000/svg">
<g clip-path="url(#clip0_2185_19297)">
<path d="M47.1932 8.39551C47.223 7.91884 46.7406 7.53563 46.3436 7.559C45.8654 7.58704 45.6092 8.0123 45.5794 8.48897C45.4961 9.85823 44.8984 11.8233 43.3059 11.4448C42.5716 11.2695 41.9077 10.8443 41.1798 10.6363C40.4732 10.433 39.7176 10.4494 39.0259 10.7158C38.3599 10.9728 37.7516 11.4331 37.3289 12.0523C36.9254 12.6435 36.6992 13.4309 36.2167 13.945C35.8282 14.3586 35.2839 14.3235 34.7844 14.2394C34.1269 14.1296 33.4822 13.959 32.8162 13.9333C31.1661 13.8702 29.8234 15.1483 29.2513 16.7746C29.0934 17.2209 29.1723 17.7303 29.5907 17.971C29.943 18.1743 30.5257 18.0481 30.6837 17.5995C30.9142 16.9475 31.2515 16.3213 31.8151 15.9568C32.3445 15.611 32.9486 15.6834 33.5313 15.7932C34.9018 16.0503 36.3235 16.3587 37.41 15.146C38.3407 14.1062 38.5264 12.3561 40.1232 12.2649C40.8511 12.2229 41.547 12.6482 42.2109 12.9145C42.9687 13.2206 43.7585 13.3865 44.5547 13.1365C46.4524 12.5383 47.0822 10.3115 47.1996 8.39317L47.1932 8.39551Z" fill="white"/>
<path d="M47.9874 6.47011C48.0109 6.2715 48.0088 6.08223 47.8978 5.90932C47.7526 5.68501 47.4772 5.60556 47.2616 5.76445C47.0866 5.89296 47.0119 6.17803 47.14 6.37665C47.1506 6.39534 47.1677 6.40468 47.1805 6.42104C47.1805 6.43039 47.1784 6.43973 47.1762 6.44908C47.1592 6.56124 47.14 6.67106 47.1143 6.78088C47.0909 6.8907 47.0631 6.99819 47.0311 7.10567C46.9927 7.23418 46.9927 7.23185 46.9457 7.35569C46.9286 7.40008 46.9073 7.43513 46.8881 7.47953C46.7707 7.05894 46.6511 6.63835 46.5508 6.21075C46.4974 5.98643 46.237 5.84623 46.0406 5.92568C45.825 6.01447 45.7225 6.24346 45.7802 6.48413C45.8677 6.85332 45.9723 7.21783 46.0726 7.58234C45.7866 7.30195 45.4706 7.05894 45.1248 6.87201C44.9348 6.7692 44.6723 6.83696 44.5784 7.0566C44.4866 7.26923 44.5442 7.54495 44.747 7.65478C44.8858 7.72955 45.0224 7.81367 45.1526 7.90713C45.1675 7.91881 45.1846 7.9305 45.1995 7.94218C45.206 7.94685 45.2358 7.97022 45.2337 7.96788C45.2486 7.97957 45.2615 7.99125 45.2764 8.0006C45.3404 8.05434 45.4023 8.10808 45.4642 8.16416C45.5795 8.27164 45.6884 8.38614 45.7908 8.50764C45.7994 8.51699 45.8079 8.52867 45.8143 8.53802C45.3981 8.55671 44.9797 8.5754 44.5634 8.5941C44.3521 8.60344 44.16 8.82309 44.1813 9.05908C44.2027 9.29976 44.3798 9.48669 44.6061 9.47734C45.1803 9.45164 45.7567 9.42593 46.3309 9.40023C46.459 9.39556 46.5743 9.30677 46.6447 9.18994C46.7514 9.18994 46.8582 9.14788 46.9329 9.05207C47.3257 8.54503 47.6138 7.97022 47.806 7.34167C47.8914 7.05894 47.9533 6.76686 47.9874 6.47245V6.47011Z" fill="white"/>
<path d="M12.7117 14.3351C12.2591 14.466 11.9218 14.7487 11.5226 14.9987C11.275 15.1529 11.0573 15.2604 10.7776 15.1413C10.0305 14.8235 9.77863 13.779 9.54595 13.0383C9.27912 12.1808 8.9824 11.1456 8.15415 10.7554C7.27467 10.3395 6.64708 11.0896 5.83591 11.2368C4.13245 11.5452 3.17185 9.27868 2.58909 7.94213C2.14294 6.91636 0.665757 7.64305 1.11617 8.67349C1.82915 10.3115 2.67447 12.0359 4.30322 12.7415C5.08878 13.0827 5.95331 13.1201 6.74527 12.7836C6.8947 12.7205 7.03559 12.6364 7.18074 12.564C7.25973 12.5242 7.61408 12.4238 7.50521 12.3677C7.74856 12.4915 7.87878 13.1505 7.9599 13.4028C8.23954 14.2604 8.47221 15.1623 9.03363 15.8633C9.5737 16.5339 10.3294 17.0199 11.1662 16.9662C11.5483 16.9405 11.909 16.7979 12.2378 16.5876C12.4555 16.4474 12.9635 15.9404 13.2475 16.0245C13.3841 16.0642 13.5677 16.6741 13.6125 16.8376C13.7406 17.3026 13.7512 17.7723 13.6957 18.249C13.5612 19.3799 15.1686 19.5762 15.3031 18.4476C15.5038 16.7582 14.8036 13.7369 12.7159 14.3421L12.7117 14.3351Z" fill="white"/>
<path d="M4.19672 7.31595C4.10707 7.12201 3.85518 6.96779 3.66092 7.0963C3.28095 7.34632 2.88817 7.5683 2.49113 7.78093C2.76223 7.37203 3.044 6.97246 3.35353 6.59393C3.41757 6.51449 3.44105 6.36494 3.42611 6.26447C3.41117 6.15698 3.34926 6.03782 3.26387 5.97473C3.17635 5.91164 3.06962 5.87192 2.96289 5.89528C2.85189 5.92098 2.77504 5.9794 2.69819 6.07286C2.45697 6.36728 2.22856 6.67571 2.00869 6.99116C2.01723 6.90236 2.01937 6.81124 2.03004 6.72245C2.07914 6.29484 2.15172 5.92566 2.24991 5.55881C2.30968 5.33683 2.23924 5.06812 2.01937 4.98634C1.82725 4.9139 1.55828 5.00036 1.49638 5.23869C1.30852 5.94435 1.20393 6.66169 1.17831 7.38838C0.937094 6.91872 0.819687 6.49813 0.796206 5.94669C0.785533 5.70835 0.531508 5.54479 0.332984 5.57984C0.100306 5.61956 -0.00856149 5.84621 -2.28443e-05 6.08455C0.0533437 7.35333 0.730031 8.58006 1.72692 9.2273C1.91477 9.3488 2.15385 9.33478 2.29047 9.12916C2.34597 9.04504 2.36732 8.93289 2.36091 8.82307C2.92019 8.54968 3.4688 8.24592 3.99606 7.9001C4.17751 7.78093 4.30345 7.54493 4.19672 7.31361V7.31595Z" fill="white"/>
<path d="M27.832 3.82736C27.8235 2.84364 27.9217 1.73141 28.6219 1.11454C28.782 0.974345 28.9762 0.864524 29.179 0.871534C29.7084 0.88789 29.9539 1.59355 30.0158 2.17069C30.1161 3.12403 30.1225 8.39545 28.9933 8.6665C27.7851 8.95857 27.8363 4.44422 27.832 3.82736Z" fill="white"/>
<path d="M18.9941 3.83455C18.8831 2.75503 18.8084 1.58672 19.3228 0.656745C19.547 0.250173 19.9696 -0.112003 20.3838 0.030531C20.8278 0.182411 20.9644 0.787596 21.0007 1.29698C21.1544 3.48405 20.7723 5.67113 20.3923 7.82549C20.1746 9.05689 19.7028 8.94941 19.4381 8.05448C19.0816 6.84879 19.1286 5.11268 18.9962 3.83455H18.9941Z" fill="white"/>
<path d="M22.7748 30.1167C28.278 30.8901 33.3328 27.4342 34.8783 21.5413C35.7792 18.1041 35.2113 14.3468 33.5933 11.2695C31.4351 7.16407 26.6983 5.16392 22.5208 5.49105C16.0698 5.99809 11.1964 13.6786 12.5455 20.4875C13.5979 25.7986 17.9782 29.4414 22.7748 30.1143V30.1167Z" fill="white"/>
<path d="M28.9992 15.3655C26.5475 15.6985 24.0633 15.7951 21.5934 15.6306C20.5152 15.5587 19.4471 15.4086 18.375 15.2894C17.5496 15.1969 16.7223 15.0983 15.903 14.9647C15.5429 14.9051 15.1828 14.8413 14.8248 14.7673C14.2624 16.2945 14.0945 17.9451 14.4506 19.5319C15.3204 23.4249 18.9414 26.0949 22.9042 26.5882C27.4537 27.1535 31.631 24.6212 32.9074 20.3027C33.4536 18.4528 33.3444 16.4775 32.7193 14.6666C31.4914 14.9626 30.2493 15.1969 28.9972 15.3675L28.9992 15.3655Z" fill="black"/>
<path d="M21.7095 13.2113C22.1087 10.5919 20.4138 9.28106 18.5737 9.90961C17.6515 10.2251 16.8169 11.613 16.7251 12.6668" stroke="black" stroke-width="2" stroke-miterlimit="10"/>
<path d="M25.8701 13.8795C25.8359 12.8257 26.1689 11.7345 26.8798 11.0218C27.5906 10.3115 28.6963 10.0521 29.5588 10.5218C30.4212 10.9915 30.7862 12.1154 30.8865 13.2066" stroke="black" stroke-width="2" stroke-miterlimit="10"/>
</g>
<defs>
<clipPath id="clip0_2185_19297">
<rect width="48" height="32" rx="5" fill="white"/>
</clipPath>
</defs>
</svg>
