<svg width="36" height="47" viewBox="0 0 36 47" fill="none" xmlns="http://www.w3.org/2000/svg">
<g filter="url(#filter0_i_2129_43207)">
<path d="M23.1627 46.1628L14.4238 28.3693C20.5726 29.8854 26.1107 26.4039 28.1112 24.4736L35.9024 39.8456L26.6371 37.5292L23.1627 46.1628Z" fill="#0D6ED1"/>
</g>
<g filter="url(#filter1_i_2129_43207)">
<path d="M0 39.8466L7.89654 23.9482C13.5399 27.9913 18.7762 28.9669 20.6363 28.3703L17.583 35.6351L13.1609 46.0585L8.84412 37.7409L0 39.8466Z" fill="#08A1E5"/>
</g>
<g filter="url(#filter2_i_2129_43207)">
<circle cx="18.2309" cy="14.5296" r="14.5296" fill="#DCE5F6"/>
</g>
<circle cx="18.1086" cy="14.3664" r="10.7922" stroke="#92A1C0" stroke-width="2"/>
<g filter="url(#filter3_d_2129_43207)">
<path d="M14.8572 9.544L14.8332 11.776H16.8252C17.4612 11.776 18.2532 11.776 18.2532 12.16C18.2532 12.208 18.2292 12.268 18.2052 12.328C17.9532 12.88 16.7052 14.008 15.8772 15.1C14.9412 16.324 14.7612 17.536 14.7612 18.28C14.7612 18.748 14.8332 19.036 14.8332 19.036H20.9772L20.9532 16.132L18.1092 16.048C18.1092 16.048 18.8172 15.196 19.3452 14.596C19.9332 13.936 21.2412 12.604 21.2532 11.776V11.716C21.2532 9.436 18.5652 9.532 17.6172 9.52H17.1252C16.0932 9.52 14.8572 9.544 14.8572 9.544Z" fill="#95A3C3"/>
</g>
<defs>
<filter id="filter0_i_2129_43207" x="14.4238" y="21.4736" width="21.4786" height="24.689" filterUnits="userSpaceOnUse" color-interpolation-filters="sRGB">
<feFlood flood-opacity="0" result="BackgroundImageFix"/>
<feBlend mode="normal" in="SourceGraphic" in2="BackgroundImageFix" result="shape"/>
<feColorMatrix in="SourceAlpha" type="matrix" values="0 0 0 0 0 0 0 0 0 0 0 0 0 0 0 0 0 0 127 0" result="hardAlpha"/>
<feOffset dy="-3"/>
<feGaussianBlur stdDeviation="6"/>
<feComposite in2="hardAlpha" operator="arithmetic" k2="-1" k3="1"/>
<feColorMatrix type="matrix" values="0 0 0 0 0 0 0 0 0 0 0 0 0 0 0 0 0 0 0.25 0"/>
<feBlend mode="normal" in2="shape" result="effect1_innerShadow_2129_43207"/>
</filter>
<filter id="filter1_i_2129_43207" x="0" y="20.9482" width="23.6362" height="25.1104" filterUnits="userSpaceOnUse" color-interpolation-filters="sRGB">
<feFlood flood-opacity="0" result="BackgroundImageFix"/>
<feBlend mode="normal" in="SourceGraphic" in2="BackgroundImageFix" result="shape"/>
<feColorMatrix in="SourceAlpha" type="matrix" values="0 0 0 0 0 0 0 0 0 0 0 0 0 0 0 0 0 0 127 0" result="hardAlpha"/>
<feOffset dx="3" dy="-3"/>
<feGaussianBlur stdDeviation="6"/>
<feComposite in2="hardAlpha" operator="arithmetic" k2="-1" k3="1"/>
<feColorMatrix type="matrix" values="0 0 0 0 0 0 0 0 0 0 0 0 0 0 0 0 0 0 0.25 0"/>
<feBlend mode="normal" in2="shape" result="effect1_innerShadow_2129_43207"/>
</filter>
<filter id="filter2_i_2129_43207" x="3.70129" y="-3" width="29.0592" height="32.0591" filterUnits="userSpaceOnUse" color-interpolation-filters="sRGB">
<feFlood flood-opacity="0" result="BackgroundImageFix"/>
<feBlend mode="normal" in="SourceGraphic" in2="BackgroundImageFix" result="shape"/>
<feColorMatrix in="SourceAlpha" type="matrix" values="0 0 0 0 0 0 0 0 0 0 0 0 0 0 0 0 0 0 127 0" result="hardAlpha"/>
<feOffset dy="-3"/>
<feGaussianBlur stdDeviation="6"/>
<feComposite in2="hardAlpha" operator="arithmetic" k2="-1" k3="1"/>
<feColorMatrix type="matrix" values="0 0 0 0 0 0 0 0 0 0 0 0 0 0 0 0 0 0 0.25 0"/>
<feBlend mode="normal" in2="shape" result="effect1_innerShadow_2129_43207"/>
</filter>
<filter id="filter3_d_2129_43207" x="2.76123" y="0.436035" width="30.4919" height="33.6001" filterUnits="userSpaceOnUse" color-interpolation-filters="sRGB">
<feFlood flood-opacity="0" result="BackgroundImageFix"/>
<feColorMatrix in="SourceAlpha" type="matrix" values="0 0 0 0 0 0 0 0 0 0 0 0 0 0 0 0 0 0 127 0" result="hardAlpha"/>
<feOffset dy="3"/>
<feGaussianBlur stdDeviation="6"/>
<feComposite in2="hardAlpha" operator="out"/>
<feColorMatrix type="matrix" values="0 0 0 0 0 0 0 0 0 0 0 0 0 0 0 0 0 0 0.25 0"/>
<feBlend mode="normal" in2="BackgroundImageFix" result="effect1_dropShadow_2129_43207"/>
<feBlend mode="normal" in="SourceGraphic" in2="effect1_dropShadow_2129_43207" result="shape"/>
</filter>
</defs>
</svg>
