<svg width="36" height="47" viewBox="0 0 36 47" fill="none" xmlns="http://www.w3.org/2000/svg">
<g filter="url(#filter0_i_2129_43240)">
<path d="M23.1627 46.1628L14.4238 28.3693C20.5726 29.8854 26.1107 26.4039 28.1112 24.4736L35.9024 39.8456L26.6371 37.5292L23.1627 46.1628Z" fill="#BD3120"/>
</g>
<g filter="url(#filter1_i_2129_43240)">
<path d="M0 39.8466L7.89654 23.9482C13.5399 27.9913 18.7762 28.9669 20.6363 28.3703L17.583 35.6351L13.1609 46.0585L8.84412 37.7409L0 39.8466Z" fill="#EB3D28"/>
</g>
<g filter="url(#filter2_i_2129_43240)">
<circle cx="18.434" cy="14.5296" r="14.5296" fill="#FC9786"/>
</g>
<circle cx="18.1086" cy="14.3664" r="10.7922" stroke="#C3402C" stroke-width="2"/>
<g filter="url(#filter3_d_2129_43240)">
<path d="M15.1083 9.58V11.632C15.1083 11.632 16.4283 11.644 17.0163 11.644H17.1123C17.6763 11.644 18.3123 11.656 18.3123 12.076V12.088C18.3123 12.952 16.4523 13.036 16.4523 13.036L16.4643 14.728H16.6563C17.4003 14.728 17.6523 14.98 17.6523 15.364V15.436C17.6043 16.024 16.6203 16.132 15.8763 16.132C15.4203 16.132 15.0603 16.096 15.0603 16.096C15.0603 16.096 15.0123 17.404 15.0123 18.496V19.012C15.0123 19.012 15.9843 19.036 17.0403 19.036H17.5683C19.4403 19.024 21.0603 18.472 21.1323 16.564V16.396C21.1323 14.572 19.9803 13.972 19.9803 13.972C19.9803 13.972 21.2763 13.12 21.3003 11.884V11.812C21.3003 9.412 18.7683 9.544 17.8203 9.532H17.5203C16.4763 9.532 15.1083 9.58 15.1083 9.58Z" fill="#BE3E31"/>
</g>
<defs>
<filter id="filter0_i_2129_43240" x="14.4238" y="21.4736" width="21.4786" height="24.689" filterUnits="userSpaceOnUse" color-interpolation-filters="sRGB">
<feFlood flood-opacity="0" result="BackgroundImageFix"/>
<feBlend mode="normal" in="SourceGraphic" in2="BackgroundImageFix" result="shape"/>
<feColorMatrix in="SourceAlpha" type="matrix" values="0 0 0 0 0 0 0 0 0 0 0 0 0 0 0 0 0 0 127 0" result="hardAlpha"/>
<feOffset dy="-3"/>
<feGaussianBlur stdDeviation="6"/>
<feComposite in2="hardAlpha" operator="arithmetic" k2="-1" k3="1"/>
<feColorMatrix type="matrix" values="0 0 0 0 0 0 0 0 0 0 0 0 0 0 0 0 0 0 0.25 0"/>
<feBlend mode="normal" in2="shape" result="effect1_innerShadow_2129_43240"/>
</filter>
<filter id="filter1_i_2129_43240" x="0" y="20.9482" width="23.6362" height="25.1104" filterUnits="userSpaceOnUse" color-interpolation-filters="sRGB">
<feFlood flood-opacity="0" result="BackgroundImageFix"/>
<feBlend mode="normal" in="SourceGraphic" in2="BackgroundImageFix" result="shape"/>
<feColorMatrix in="SourceAlpha" type="matrix" values="0 0 0 0 0 0 0 0 0 0 0 0 0 0 0 0 0 0 127 0" result="hardAlpha"/>
<feOffset dx="3" dy="-3"/>
<feGaussianBlur stdDeviation="6"/>
<feComposite in2="hardAlpha" operator="arithmetic" k2="-1" k3="1"/>
<feColorMatrix type="matrix" values="0 0 0 0 0 0 0 0 0 0 0 0 0 0 0 0 0 0 0.25 0"/>
<feBlend mode="normal" in2="shape" result="effect1_innerShadow_2129_43240"/>
</filter>
<filter id="filter2_i_2129_43240" x="3.90442" y="-3" width="29.0592" height="32.0591" filterUnits="userSpaceOnUse" color-interpolation-filters="sRGB">
<feFlood flood-opacity="0" result="BackgroundImageFix"/>
<feBlend mode="normal" in="SourceGraphic" in2="BackgroundImageFix" result="shape"/>
<feColorMatrix in="SourceAlpha" type="matrix" values="0 0 0 0 0 0 0 0 0 0 0 0 0 0 0 0 0 0 127 0" result="hardAlpha"/>
<feOffset dy="-3"/>
<feGaussianBlur stdDeviation="6"/>
<feComposite in2="hardAlpha" operator="arithmetic" k2="-1" k3="1"/>
<feColorMatrix type="matrix" values="0 0 0 0 0.784314 0 0 0 0 0.266667 0 0 0 0 0.184314 0 0 0 1 0"/>
<feBlend mode="normal" in2="shape" result="effect1_innerShadow_2129_43240"/>
</filter>
<filter id="filter3_d_2129_43240" x="3.01233" y="0.412109" width="30.288" height="33.624" filterUnits="userSpaceOnUse" color-interpolation-filters="sRGB">
<feFlood flood-opacity="0" result="BackgroundImageFix"/>
<feColorMatrix in="SourceAlpha" type="matrix" values="0 0 0 0 0 0 0 0 0 0 0 0 0 0 0 0 0 0 127 0" result="hardAlpha"/>
<feOffset dy="3"/>
<feGaussianBlur stdDeviation="6"/>
<feComposite in2="hardAlpha" operator="out"/>
<feColorMatrix type="matrix" values="0 0 0 0 0 0 0 0 0 0 0 0 0 0 0 0 0 0 0.25 0"/>
<feBlend mode="normal" in2="BackgroundImageFix" result="effect1_dropShadow_2129_43240"/>
<feBlend mode="normal" in="SourceGraphic" in2="effect1_dropShadow_2129_43240" result="shape"/>
</filter>
</defs>
</svg>
