<svg width="49" height="54" viewBox="0 0 49 54" fill="none" xmlns="http://www.w3.org/2000/svg">
<path opacity="0.2" d="M5.86683 19.0128C12.6377 17.4554 13.1681 19.8607 14.9699 23.8813C14.2754 21.2998 14.2882 18.9088 16.7526 19.9111C14.6055 16.7075 15.3217 16.7199 19.541 14.8672C15.5293 15.2986 14.4028 14.2379 16.3095 9.42361C14.2619 12.6628 12.0096 15.0935 9.28221 10.7288C11.1144 16.1288 10.1715 17.3656 5.86873 19.0114L5.86683 19.0128Z" fill="white"/>
<path d="M15.5851 17.1411L14.6235 18.5767L45.1465 39.0215L46.1081 37.5859L15.5851 17.1411Z" fill="black"/>
<path opacity="0.3" d="M45.484 38.0462L45.7199 37.6926C45.7627 37.631 45.7443 37.5471 45.6828 37.5043L15.8227 17.503C15.7612 17.4602 15.6772 17.4785 15.6344 17.54L15.3986 17.8937C15.3558 17.9552 15.3741 18.0391 15.4357 18.0819L45.2958 38.0833C45.3573 38.1261 45.4413 38.1077 45.484 38.0462Z" fill="white"/>
<path opacity="0.3" d="M45.0361 38.7155C45.0732 38.6582 45.0586 38.5833 45.0033 38.5448L15.1228 18.532C15.0655 18.4949 14.9906 18.5094 14.9521 18.5648C14.9136 18.6202 14.9296 18.697 14.985 18.7355L44.8654 38.7483C44.9227 38.7854 44.9976 38.7709 45.0361 38.7155Z" fill="white"/>
<path opacity="0.3" d="M45.5635 37.7215C45.6006 37.6642 45.586 37.5893 45.5307 37.5508L15.8387 17.6635C15.7833 17.625 15.7064 17.641 15.6679 17.6964C15.6308 17.7536 15.6454 17.8285 15.7008 17.8671L45.3928 37.7543C45.4482 37.7928 45.525 37.7769 45.5635 37.7215Z" fill="white"/>
<path d="M15.5859 17.1419L14.1813 16.2C13.8788 15.997 13.4691 16.0782 13.2661 16.3807L13.0393 16.7187C12.8363 17.0212 12.9175 17.4309 13.22 17.6339L14.6245 18.5758L15.5859 17.1419Z" fill="white"/>
<path d="M15.5859 17.1419L14.1813 16.2C13.8788 15.997 13.4691 16.0782 13.2661 16.3807L13.0393 16.7187C12.8363 17.0212 12.9175 17.4309 13.22 17.6339L14.6245 18.5758L15.5859 17.1419Z" fill="white"/>
<path opacity="0.3" d="M14.6018 18.2912L14.926 17.8065C14.9431 17.7819 14.9366 17.7453 14.9106 17.7263L13.8795 17.035C13.7204 16.929 13.5028 16.9703 13.3967 17.1294C13.2907 17.2884 13.332 17.5061 13.4911 17.6121L14.5221 18.3034C14.5467 18.3205 14.5833 18.3139 14.6023 18.2879L14.6018 18.2912Z" fill="white"/>
<path opacity="0.3" d="M15.2686 17.2889L15.3831 17.1175C15.3831 17.1175 15.3879 17.0962 15.377 17.0895L14.1282 16.2532C14.0709 16.2161 13.996 16.2307 13.9575 16.2861C13.9204 16.3433 13.9349 16.4183 13.9903 16.4568L15.2392 17.2931C15.2392 17.2931 15.2605 17.2979 15.2672 17.287L15.2686 17.2889Z" fill="white"/>
<path d="M47.4692 39.7837L47.696 39.4457C47.899 39.1432 47.8178 38.7334 47.5153 38.5304L46.1108 37.5885L45.1494 39.0225L46.554 39.9643C46.8565 40.1674 47.2662 40.0862 47.4692 39.7837Z" fill="white"/>
<path d="M47.4692 39.7837L47.696 39.4457C47.899 39.1432 47.8178 38.7334 47.5153 38.5304L46.1108 37.5885L45.1494 39.0225L46.554 39.9643C46.8565 40.1674 47.2662 40.0862 47.4692 39.7837Z" fill="white"/>
<path opacity="0.3" d="M14.6499 16.6881C13.8779 16.1139 13.5512 16.1242 13.3268 16.4575C12.916 17.0719 13.0922 17.3752 13.3864 17.472C13.6806 17.5688 15.4204 17.2604 14.6499 16.6881Z" fill="white"/>
<path d="M14.0342 16.5473C14.0178 16.2046 13.5849 16.2232 13.383 16.4598C13.3013 16.5563 13.0439 17 13.2486 17.0719C13.4513 17.1454 14.051 16.8868 14.0346 16.544L14.0342 16.5473Z" fill="white"/>
<path opacity="0.3" d="M47.3389 39.032C47.445 38.8729 47.4037 38.6552 47.2446 38.5492L46.2136 37.8579C46.189 37.8408 46.1524 37.8473 46.1334 37.8734L45.8092 38.3581C45.792 38.3828 45.7986 38.4193 45.8247 38.4383L46.8557 39.1296C47.0148 39.2356 47.2325 39.1943 47.3385 39.0352L47.3389 39.032Z" fill="white"/>
<path opacity="0.3" d="M46.7754 39.8745C46.8125 39.8172 46.7979 39.7423 46.7425 39.7038L45.4937 38.8674C45.4937 38.8674 45.4724 38.8627 45.4657 38.8736L45.3511 39.0449C45.3511 39.0449 45.3463 39.0662 45.3572 39.0729L46.606 39.9092C46.6633 39.9463 46.7383 39.9318 46.7768 39.8764L46.7754 39.8745Z" fill="white"/>
<path opacity="0.1" d="M31.4361 29.8112L31.6335 29.9685L40.54 35.9364C40.6385 35.7593 40.7346 35.5633 40.7934 35.3448C40.972 34.673 40.2907 34.0104 39.5785 34.1341C39.6505 33.2047 38.3148 32.1966 37.5804 32.251C36.7563 31.4288 35.8071 30.7799 35.153 31.0052C35.0406 31.0448 34.9016 31.0687 34.7518 31.0859C34.5784 31.032 34.3981 30.8856 34.1864 30.5231C33.6989 29.6802 32.2041 29.069 31.4342 29.8127L31.4361 29.8112Z" fill="black"/>
<path opacity="0.5" d="M10.929 17.5714C12.8526 17.3387 13.298 17.8994 13.7756 19.4301C13.6311 17.7512 14.3437 16.7131 16.319 16.7436C15.9389 16.7139 14.3174 15.6559 15.3019 14.5183C15.3019 14.5183 13.8019 15.2984 13.1178 13.4517C13.1997 14.9199 12.4967 15.868 10.0454 14.9624C10.9626 15.4696 12.3872 16.3551 10.9271 17.5728L10.929 17.5714Z" fill="white"/>
<g opacity="0.5">
<path d="M9.53061 24.5198C12.7931 19.6632 15.4633 16.885 20.1322 17.4802C17.1186 16.1427 15.0069 15.6402 18.7782 11.9124C15.2981 13.1863 13.9277 12.2189 12.2986 8.56036C13.1551 12.6658 11.3585 15.0489 5.08088 12.9098C10.6455 16.2648 11.9847 18.5808 9.52729 24.5193L9.53061 24.5198Z" fill="white"/>
<path d="M13.0513 26.612C13.8293 25.0872 14.832 24.3383 16.6813 24.2913C14.8058 24.133 14.151 23.779 14.3255 22.5748C13.6086 24.051 12.5418 23.7118 11.8384 23.4236C12.9095 24.2477 13.3093 25.088 13.0493 26.6134L13.0513 26.612Z" fill="white"/>
<path d="M17.0039 8.89248C16.4788 8.84687 16.295 8.74744 16.3436 8.41239C16.1432 8.82535 15.8438 8.72946 15.6453 8.6499C15.9454 8.88135 16.0587 9.11621 15.9849 9.54411C16.2043 9.11697 16.4853 8.90709 17.002 8.8939L17.0039 8.89248Z" fill="white"/>
<path d="M21.7221 17.5004C22.2441 16.5159 22.6975 16.4021 23.5056 16.4227C22.4873 16.0295 23.6491 14.3926 23.6491 14.3926C23.6491 14.3926 22.4495 15.7175 21.2214 14.703C21.7144 15.4264 21.9628 15.6521 20.8243 15.8427C21.729 15.9687 21.9979 16.5903 21.7221 17.5004Z" fill="white"/>
<path d="M6.03252 18.4522C5.26774 19.0086 4.84469 19.1234 4.23617 18.3443C4.78476 19.2214 4.73558 19.8765 3.86391 20.0719C4.86654 20.0479 4.99993 20.1908 5.3836 20.8154C5.18261 19.865 5.84937 19.7161 6.59707 19.6399C5.85682 19.5479 5.30207 19.1457 6.03252 18.4522Z" fill="white"/>
<path d="M9.11842 9.14422C8.56156 9.55125 8.25138 9.635 7.80882 9.06622C8.21047 9.70697 8.17351 10.1842 7.5366 10.3256C8.2657 10.3077 8.36407 10.4117 8.64521 10.8673C8.50012 10.174 8.98673 10.065 9.5315 10.0101C8.99266 9.94221 8.58649 9.648 9.11842 9.14422Z" fill="white"/>
</g>
</svg>
