<svg width="43" height="41" viewBox="0 0 43 41" fill="none" xmlns="http://www.w3.org/2000/svg">
<g style="mix-blend-mode:multiply" clip-path="url(#clip0_3627_3984)">
<path d="M14.7729 34.7962C14.5777 34.3829 14.3968 33.96 14.1873 33.5516C13.9255 33.0326 13.7208 32.4848 13.4494 31.9802C13.2066 31.5333 13.0495 31.0527 12.821 30.601C12.4544 29.8802 12.1354 29.1354 11.7926 28.4049C11.607 28.0109 11.3927 27.6313 11.2356 27.2324C11.0642 26.7999 10.8119 26.4155 10.6453 25.983C10.512 25.6418 10.3072 25.3247 10.1454 24.9931C10.0882 24.8777 10.0264 24.7528 9.9835 24.6375C9.79783 24.1329 9.50742 23.6812 9.28842 23.191C9.10275 22.7778 8.90279 22.3693 8.7076 21.9608C8.50764 21.5428 8.32197 21.1103 8.11725 20.6922C7.9411 20.327 7.7459 19.9666 7.56975 19.6014C7.30791 19.0584 7.0651 18.5057 6.7985 17.9627C6.53189 17.4149 6.22243 16.8815 5.98439 16.3193C5.69874 15.6465 5.3512 15.0074 5.05602 14.3394C4.87511 13.931 4.65135 13.5465 4.47044 13.1381C4.2324 12.6095 3.97055 12.0953 3.73251 11.5715C3.47066 11.0045 3.20881 10.4326 2.93269 9.87037C2.62799 9.25527 2.33282 8.64017 2.04241 8.02027C1.90434 7.72234 1.70915 7.4292 1.59489 7.13607C1.4473 6.75644 1.24258 6.40084 1.095 6.02121C0.961693 5.67041 0.737933 5.33884 0.585586 4.98804C0.418956 4.61322 0.180914 4.28164 0.0856968 3.8876C-0.00475935 3.51277 -0.0190419 3.13795 0.0333274 2.74871C0.0952185 2.33544 0.233283 1.96542 0.447521 1.61462C0.680803 1.2398 0.99978 0.941863 1.3378 0.667953C1.64726 0.41807 2.00432 0.273907 2.38043 0.158576C3.08503 -0.0576685 3.78488 -0.0528631 4.48472 0.168187C4.65611 0.221047 4.85607 0.225852 5.00365 0.317156C5.56067 0.653536 6.07485 1.03317 6.35574 1.65787C6.56521 2.13361 6.8223 2.59493 7.0413 3.06587C7.34123 3.70499 7.64593 4.3345 7.95538 4.96882C8.27436 5.62716 8.60762 6.2807 8.9266 6.93905C9.13131 7.35712 9.33127 7.78481 9.53598 8.20288C9.86924 8.88525 10.212 9.56762 10.5358 10.2548C11.1023 11.461 11.6927 12.6575 12.2687 13.8589C12.4544 14.2385 12.6305 14.6278 12.84 15.0026C13.1209 15.5071 13.3351 16.0502 13.5827 16.574C13.835 17.0977 14.0921 17.6119 14.3492 18.1309C14.7634 18.9719 15.1728 19.8128 15.5823 20.6586C15.8917 21.2929 16.1964 21.9272 16.5059 22.5615C16.8439 23.2583 17.1771 23.9551 17.5199 24.6519C17.7675 25.1613 18.0389 25.6658 18.2721 26.1848C18.4673 26.6173 18.6292 27.069 18.6435 27.5544C18.6625 28.1262 18.4864 28.6452 18.196 29.1306C17.9294 29.5727 17.6104 29.9619 17.1486 30.2022C16.9343 30.3175 16.6963 30.3944 16.4821 30.5097C15.6584 30.9422 15.1157 31.6054 14.8777 32.5232C14.7396 33.0566 14.6729 33.5804 14.7777 34.133C14.811 34.2964 14.8586 34.479 14.8491 34.6616C14.8539 34.7241 14.8491 34.7866 14.7729 34.7962Z" fill="#3498DB"/>
<path d="M36.2158 9.47152C35.8111 9.76946 35.3874 10.0001 34.9732 10.2404C34.5733 10.471 34.24 10.4326 33.8592 10.226C33.4545 10.0097 33.0213 9.84154 32.5975 9.65893C32.35 9.55321 32.2881 9.58204 32.1738 9.82231C31.9881 10.2164 31.8025 10.6104 31.6216 11.0045C31.5454 11.1726 31.4692 11.3456 31.393 11.5138C31.3502 11.6099 31.3597 11.6772 31.4692 11.7157C31.4835 11.7205 31.493 11.7301 31.5073 11.7349C32.15 12.0136 32.0072 11.9607 32.2595 11.461C32.3881 11.2063 32.5166 10.9516 32.6309 10.6873C32.6832 10.572 32.7404 10.5672 32.8451 10.6104C33.2355 10.7882 33.6259 10.9564 34.0163 11.1246C34.1258 11.1726 34.1448 11.2207 34.0924 11.336C33.8258 11.9175 33.5783 12.5086 33.3069 13.09C33.1546 13.4168 33.145 13.412 32.8023 13.2678C32.4357 13.114 32.4357 13.114 32.2833 13.4889C32.1548 13.8012 32.1548 13.7964 32.4785 13.9406C32.6118 14.003 32.8165 14.0175 32.8594 14.1472C32.8927 14.2385 32.7594 14.3923 32.7023 14.5172C32.6975 14.5316 32.6928 14.5461 32.688 14.5557C32.5499 14.8632 32.5499 14.8632 32.2643 14.7046C31.9548 14.5316 31.8882 14.5509 31.7453 14.8584C31.7073 14.9401 31.6882 15.0314 31.6454 15.1131C31.6073 15.1852 31.6311 15.2332 31.6882 15.2525C31.8358 15.2957 31.9358 15.4303 32.1024 15.4447C32.2262 15.4591 32.3262 15.5023 32.2119 15.7042C32.012 16.0502 31.8786 16.4298 31.7263 16.7998C31.6644 16.944 31.6025 17.0257 31.4502 16.9151C31.4216 16.8959 31.3835 16.8863 31.355 16.8719C30.9646 16.6893 30.9646 16.6893 30.8075 17.0833C30.6789 17.4053 30.6789 17.4053 30.9979 17.5543C31.3264 17.708 31.3264 17.708 31.1883 18.0348C30.936 18.6211 30.6742 19.2025 30.4314 19.7888C30.3647 19.9426 30.2885 19.9474 30.1552 19.8849C29.8267 19.7407 29.4887 19.611 29.1554 19.4668C29.0174 19.4092 28.9364 19.4284 28.8746 19.5725C28.6936 19.9762 28.6889 19.9714 29.0888 20.1492C29.5125 20.3366 29.5125 20.3366 29.3316 20.7595C28.9983 21.5236 28.6556 22.2876 28.3271 23.0565C28.2652 23.2007 28.2033 23.2103 28.0747 23.1526C27.8938 23.0709 27.6701 22.9027 27.5368 22.9556C27.4035 23.0084 27.3701 23.292 27.2749 23.4698C27.2083 23.5947 27.2416 23.6428 27.3606 23.6908C27.7034 23.8302 28.0414 23.9839 28.3794 24.1233C28.4842 24.1665 28.5222 24.2098 28.4604 24.3251C28.3842 24.4693 28.3128 24.6183 28.2699 24.7768C28.2128 25.0075 28.0747 24.9546 27.9414 24.8874C27.8462 24.8393 27.751 24.7961 27.6605 24.7432C27.4701 24.6279 27.413 24.7528 27.3654 24.897C27.3511 24.9354 27.3558 24.9835 27.3368 25.0171C27.1511 25.3919 27.1511 25.3871 27.5415 25.5457C27.6796 25.6034 27.8938 25.6178 27.851 25.834C27.8319 25.9205 27.7415 26.0262 27.7081 26.1224C27.6129 26.3915 27.4891 26.3578 27.2654 26.2521C26.8036 26.0407 26.9464 26.0214 26.7179 26.4635C26.6846 26.526 26.6703 26.5981 26.637 26.6606C26.5798 26.7663 26.6131 26.7999 26.7226 26.8384C26.8893 26.9008 27.0416 26.997 27.2035 27.0738C27.3035 27.1219 27.2987 27.194 27.2416 27.2661C27.1368 27.3958 27.0845 27.54 27.0464 27.6985C27.0178 27.8283 26.9178 27.8187 26.8131 27.7754C26.6703 27.7082 26.5132 27.6601 26.3751 27.5832C26.2751 27.5255 26.2275 27.5352 26.1894 27.6457C26.1371 27.7802 26.0609 27.91 26.018 28.0493C25.9847 28.1599 26.0228 28.2608 26.1513 28.3088C26.2656 28.3521 26.3751 28.4242 26.4941 28.4626C26.6512 28.5107 26.6417 28.6116 26.5989 28.7317C26.5893 28.7557 26.5608 28.775 26.5513 28.799C26.4703 28.948 26.4608 29.1834 26.2942 29.2171C26.1609 29.2411 25.9942 29.1161 25.8419 29.0537C25.799 29.0345 25.761 28.9864 25.7181 28.9816C25.6277 28.9672 25.4896 28.8711 25.4848 29.0825C25.4848 29.0969 25.4563 29.1113 25.4467 29.1306C25.3515 29.2651 25.361 29.515 25.1992 29.5438C25.0659 29.5679 24.904 29.4381 24.7517 29.3756C24.7279 29.366 24.685 29.342 24.6755 29.3516C24.485 29.4862 24.485 29.7216 24.3803 29.9042C24.3184 30.0196 24.4232 30.0628 24.5089 30.1013C25.0659 30.356 25.6324 30.601 26.1942 30.8461C26.5941 31.0191 26.9797 31.2209 27.3892 31.3699C27.4415 31.3891 27.5177 31.4468 27.4415 31.5333C27.4177 31.5573 27.4035 31.5958 27.3939 31.6294C27.1654 32.2109 27.075 32.0427 27.6843 32.331C27.8557 32.4127 27.8653 32.4655 27.7938 32.6049C27.7272 32.7298 27.6558 32.8548 27.6082 32.9893C27.5558 33.1191 27.4844 33.1575 27.3701 33.0854C27.2368 33.0086 27.0845 32.9797 26.9607 32.8884C26.8702 32.8259 26.7988 32.8259 26.7369 32.9605C26.4846 33.5131 26.4703 33.5323 27.0131 33.7486C27.2654 33.8495 27.2035 33.96 27.1178 34.1138C26.8131 34.6568 26.5893 35.2431 26.318 35.8005C26.0895 36.2666 25.8752 36.7424 25.6515 37.2085C25.5467 37.4296 25.4372 37.4632 25.2087 37.3575C24.8659 37.1989 24.5279 37.0451 24.1899 36.8817C24.0613 36.8193 23.9947 36.8385 23.9471 36.9682C23.909 37.074 23.8661 37.1845 23.809 37.2806C23.7043 37.4536 23.7709 37.5545 23.9328 37.6266C24.1946 37.7419 24.447 37.8765 24.7136 37.9726C24.9183 38.0447 24.8278 38.0975 24.7326 38.1792C24.4041 38.4723 24.0471 38.7318 23.6995 38.9961C23.4043 39.2172 23.0854 39.3998 22.7711 39.592C22.695 39.6401 22.6331 39.6497 22.5426 39.6064C22.1903 39.443 21.8333 39.2893 21.4762 39.1355C21.2524 39.0394 21.2381 39.0105 21.3476 38.7751C21.5809 38.2801 21.5762 38.2897 21.0906 38.0735C20.9049 37.9918 20.8287 38.0254 20.7478 38.2128C20.5621 38.6549 20.5526 38.6501 20.9953 38.8568C21.0001 38.8616 21.0096 38.8664 21.0144 38.8664C21.2001 38.9289 21.2572 39.0394 21.1429 39.2172C21.0763 39.3277 21.0334 39.4478 20.9573 39.5536C20.8525 39.7025 20.9001 39.7746 21.0572 39.8323C21.2762 39.9188 21.4952 40.0197 21.7428 40.1302C21.5095 40.2888 21.2715 40.3609 21.0572 40.4714C20.6288 40.6924 20.1574 40.7934 19.7004 40.9279C19.5195 40.9808 19.3005 41.024 19.0958 40.9808C18.8196 40.9231 18.6911 40.6828 18.5626 40.4714C18.2293 39.9236 18.0103 39.3277 17.7818 38.7318C17.7342 38.6117 17.7818 38.4723 17.658 38.381C17.6723 38.3714 17.6866 38.357 17.7008 38.3474C17.8532 38.4099 18.0008 38.4723 18.1531 38.5396C18.3007 38.6069 18.3959 38.554 18.4769 38.4243C18.5578 38.2945 18.5626 38.1408 18.634 38.011C18.6863 37.9101 18.5959 37.838 18.5007 37.8092C18.1484 37.7035 17.8532 37.4728 17.5009 37.3623C17.339 37.3094 17.3438 37.1076 17.3152 36.9682C17.2533 36.6607 17.2486 36.3435 17.1676 36.0408C17.1248 35.8822 17.1914 35.7188 17.1105 35.5602C17.0724 35.4882 17.1581 35.493 17.22 35.5074C17.5961 35.6035 17.5961 35.6035 17.7437 35.2142C17.7532 35.195 17.7675 35.1806 17.777 35.1614C17.8532 35.0076 17.877 34.8827 17.658 34.8154C17.5199 34.7722 17.3961 34.6905 17.2533 34.6472C17.1057 34.604 17.0058 34.5079 17.0438 34.33C17.1153 34.0225 17.0867 33.7005 17.1771 33.3978C17.2866 33.0134 17.4533 32.653 17.6009 32.2877C17.7532 31.9033 17.9008 31.5237 18.0579 31.1392C18.1864 30.8173 18.3531 30.5145 18.4483 30.1782C18.4864 30.0484 18.553 30.0196 18.6959 30.0868C19.0196 30.2454 19.3576 30.3704 19.6861 30.5193C19.7956 30.5674 19.8527 30.5626 19.8813 30.4376C19.9051 30.3511 19.948 30.2695 19.986 30.1878C20.1003 29.909 20.0908 29.8946 19.8337 29.7553C19.5576 29.6063 19.2624 29.5102 18.972 29.3901C18.8339 29.3324 18.7863 29.2795 18.8625 29.1113C19.0291 28.7461 19.1719 28.3665 19.31 27.9869C19.3386 27.9052 19.3767 27.9148 19.429 27.91C19.6337 27.9004 19.8004 28.0253 19.9765 28.0926C20.6383 28.3617 21.3 28.6404 21.957 28.9239C22.1284 28.996 22.2236 28.972 22.2998 28.775C22.4188 28.4722 22.5426 28.1647 22.6854 27.8715C22.7664 27.7082 22.8188 27.6361 22.9997 27.7274C23.052 27.7562 23.1234 27.8139 23.1615 27.8043C23.2853 27.7754 23.4139 27.9676 23.471 27.8667C23.5757 27.6841 23.6947 27.4919 23.6995 27.2661C23.6995 27.2084 23.6471 27.2084 23.6091 27.1892C23.4996 27.1267 23.3901 27.069 23.271 27.0306C23.1473 26.9921 23.0996 26.9105 23.1615 26.7663C23.3186 26.4107 23.4662 26.0455 23.6091 25.6803C23.6757 25.5169 23.7424 25.3919 23.9328 25.5313C23.9376 25.5361 23.9471 25.5313 23.9518 25.5361C24.0994 25.6082 24.2899 25.6466 24.3708 25.762C24.4136 25.8292 24.2661 26.0214 24.2089 26.1608C24.1708 26.2617 24.1375 26.3674 24.1042 26.4684C24.0756 26.55 24.1375 26.5837 24.1899 26.6125C24.3137 26.675 24.4374 26.7327 24.566 26.7759C24.6612 26.8095 24.7421 26.8047 24.8135 26.6894C25.0183 26.353 25.1135 25.9686 25.2754 25.6178C25.3896 25.3775 25.4705 25.1228 25.58 24.8778C25.6562 24.7096 25.6086 24.6231 25.442 24.5798C25.4039 24.5702 25.3658 24.5462 25.3277 24.527C25.0659 24.3876 24.9754 24.4212 24.8754 24.6903C24.8421 24.7816 24.7897 24.8633 24.7421 24.9498C24.7088 25.0075 24.666 25.0315 24.5993 24.9979C24.4803 24.9402 24.3565 24.8874 24.2327 24.8393C24.0471 24.7624 24.0232 24.6423 24.1327 24.4741C24.3327 24.1665 24.4089 23.8061 24.5612 23.4746C24.6279 23.3304 24.6898 23.3112 24.8183 23.3736C24.9278 23.4265 25.0468 23.4553 25.1468 23.5178C25.3134 23.6235 25.3896 23.513 25.461 23.3977C25.4991 23.3352 25.5229 23.2679 25.5467 23.2007C25.6515 22.9412 25.6419 22.9219 25.3849 22.8066C25.3039 22.773 25.2277 22.7105 25.142 22.6913C24.8945 22.6432 24.9802 22.4991 25.0373 22.3645C25.1992 21.9849 25.361 21.6052 25.542 21.2304C25.6324 21.043 25.799 21.1824 25.8705 21.2256C26.1752 21.413 26.5179 21.5091 26.8274 21.6677C26.9178 21.7158 26.975 21.6821 27.0369 21.6293C27.0702 21.5956 27.1035 21.5524 27.1226 21.5091C27.3082 21.0142 27.3035 21.0142 26.7988 20.8075C26.5465 20.7066 26.2989 20.6057 26.0514 20.5C25.9038 20.4375 25.8895 20.3751 25.9752 20.2213C26.1371 19.9378 26.2513 19.6254 26.3846 19.3227C26.5751 18.8854 26.7607 18.4481 26.9512 18.0108C26.9655 17.9723 26.9845 17.9339 26.9988 17.8954C27.1321 17.5206 27.194 17.4966 27.551 17.6984C27.8081 17.8426 27.8653 17.8234 27.97 17.5543C28.0176 17.4245 28.1271 17.2707 28.089 17.1698C28.0462 17.0497 27.8557 17.0257 27.7177 16.9728C27.4035 16.8431 27.413 16.819 27.5939 16.4971C27.7415 16.2328 27.8367 15.9348 27.9605 15.6561C28.0938 15.3534 28.2318 15.0554 28.3556 14.7527C28.3985 14.647 28.4556 14.7094 28.508 14.7287C28.6651 14.7911 28.8269 14.8488 28.9793 14.9209C29.1078 14.9834 29.1697 14.9257 29.1983 14.8104C29.2173 14.7431 29.2316 14.6758 29.2649 14.6085C29.4173 14.2866 29.3744 14.1616 29.0412 14.0655C28.646 13.9454 28.746 13.8733 28.8603 13.6186C29.084 13.1092 29.2745 12.5806 29.5125 12.0809C29.6553 11.7829 29.7553 11.4706 29.8981 11.1774C29.9457 11.0765 29.9886 11.0813 30.0695 11.1198C30.1838 11.1726 30.3076 11.2159 30.4171 11.2784C30.6075 11.3889 30.717 11.3168 30.7884 11.1342C30.7932 11.1294 30.7932 11.1198 30.7932 11.115C30.9788 10.6585 30.955 10.5768 30.4932 10.423C30.2885 10.3557 30.279 10.2692 30.3599 10.101C30.5075 9.80309 30.6456 9.49555 30.7932 9.1928C30.8836 9.00539 30.8455 8.88045 30.6456 8.81798C30.5456 8.78434 30.517 8.74109 30.5075 8.64979C30.4837 8.39991 30.3219 8.19808 30.2885 7.94819C30.279 7.89533 30.179 7.82806 30.279 7.78962C30.3361 7.77039 30.4218 7.78481 30.4885 7.83286C30.7075 7.99144 30.9646 8.07794 31.2074 8.19808C31.274 8.23172 31.2978 8.19808 31.3169 8.14522C31.393 7.953 31.474 7.76078 31.5406 7.56856C31.5597 7.5109 31.493 7.47726 31.4549 7.46285C31.0407 7.3379 30.6742 7.09283 30.26 6.96789C30.1457 6.93425 30.0743 6.87178 30.06 6.75164C30.0457 6.63631 30.0172 6.52578 30.0172 6.41045C30.0219 6.03563 29.9124 5.67522 29.9267 5.3004C29.9362 5.0409 29.9648 5.01688 30.2076 5.1226C30.3219 5.17546 30.4409 5.21871 30.5551 5.27157C30.6551 5.31481 30.7408 5.3052 30.7694 5.19468C30.8122 5.0409 30.9265 4.93518 30.9646 4.77661C30.9979 4.65166 30.9503 4.58919 30.8598 4.56517C30.6789 4.51231 30.4504 4.48347 30.3647 4.3345C30.2742 4.17593 30.4837 4.00293 30.5123 3.82513C30.5504 3.61369 30.6599 3.59927 30.8265 3.67135C31.1502 3.81071 31.4787 3.93565 31.8025 4.07021C32.0167 4.16151 32.0643 4.30567 31.9215 4.54114C31.7406 4.84388 31.6787 5.19468 31.4883 5.49262C31.4168 5.60795 31.4359 5.72808 31.5978 5.77614C31.7311 5.81458 31.8406 5.95394 32.0072 5.86744C32.0262 5.85783 32.0691 5.87225 32.0834 5.89147C32.2357 6.08849 32.4738 6.13174 32.6737 6.23746C32.926 6.36721 33.1879 6.46812 33.4354 6.59306C34.1115 6.94386 34.8304 7.19855 35.5159 7.52051C35.6921 7.6022 35.8206 7.52532 35.8825 7.26102C35.9111 7.14569 36.0015 7.06399 36.0111 6.93905C36.0206 6.86217 36.1206 6.81892 36.2205 6.86217C36.7776 7.11205 37.3346 7.36193 37.8964 7.6022C38.0059 7.65026 38.0106 7.70792 37.963 7.79923C37.8726 7.97222 37.744 8.11638 37.6155 8.26055C37.5345 8.35666 37.4488 8.3038 37.3631 8.26535C36.9013 8.05872 36.4395 7.8617 35.9777 7.65026C35.8111 7.57818 35.7111 7.54934 35.6254 7.78481C35.4683 8.23172 35.4493 8.22691 35.0208 8.0395C34.5447 7.83286 34.6066 7.85689 34.4162 8.28938C34.2924 8.5729 34.1781 8.85642 34.0496 9.13514C34.0067 9.23125 34.0353 9.28411 34.121 9.31774C34.1353 9.32255 34.1448 9.32736 34.1591 9.33697C34.7304 9.6301 34.7304 9.6301 35.0018 9.05825C35.0494 8.95253 35.0922 8.9237 35.2065 8.97656C35.5159 9.12553 35.8302 9.25047 36.1444 9.38983C36.1491 9.42346 36.1682 9.43788 36.2158 9.47152ZM20.0003 34.1138C20.0479 34.133 20.0908 34.1522 20.1289 34.1667C20.6764 34.3973 20.6764 34.3973 20.8858 33.8399C20.9239 33.739 20.9144 33.6765 20.8192 33.6333C20.4383 33.4603 20.0575 33.2921 19.6766 33.1191C19.5909 33.0806 19.5433 33.1047 19.51 33.1864C19.3481 33.566 19.1862 33.9456 19.0244 34.3252C19.0006 34.3781 18.972 34.431 19.0529 34.4646C19.2529 34.5463 19.4528 34.7193 19.6575 34.6905C19.8004 34.6712 19.8099 34.4117 19.8908 34.2628C19.9051 34.2339 19.9194 34.1955 19.9337 34.1667C19.948 34.1282 19.967 34.1042 20.0003 34.1138ZM25.4325 33.196C25.4325 33.1527 25.4229 33.1143 25.3896 33.0951C25.223 33.0037 25.0516 32.9124 24.8659 32.8692C24.7802 32.85 24.7564 32.9076 24.7326 32.9701C24.666 33.1287 24.6041 33.2873 24.5279 33.441C24.485 33.5275 24.4993 33.5708 24.5803 33.6092C24.7231 33.6717 24.8612 33.7438 25.0087 33.7966C25.1278 33.8351 25.1373 33.8783 25.0802 33.9889C24.7469 34.6472 24.7421 34.5703 25.4182 34.8538C25.4229 34.8586 25.4325 34.8586 25.4372 34.8635C25.542 34.9067 25.6181 34.8827 25.661 34.7721C25.9133 34.1234 26.0704 34.2099 25.3277 33.9648C25.1944 33.9216 25.123 33.8591 25.2087 33.7005C25.2992 33.542 25.361 33.3642 25.4325 33.196ZM24.685 32.7827C24.7517 32.7875 24.7897 32.7539 24.8088 32.7058C24.8754 32.5472 24.9326 32.3838 25.004 32.2301C25.0611 32.1099 25.0183 32.0475 24.9088 31.9994C24.5374 31.836 24.1708 31.6726 23.7995 31.4996C23.6995 31.4564 23.6471 31.4756 23.5995 31.5765C23.5281 31.7399 23.4519 31.9033 23.3662 32.0571C23.3091 32.1628 23.3377 32.206 23.4377 32.2493C23.7709 32.3935 24.0994 32.5424 24.4327 32.6866C24.5184 32.725 24.6088 32.7539 24.685 32.7827ZM21.8095 31.4708C21.9047 31.466 21.938 31.3987 21.9666 31.3315C22.0713 31.1056 22.1808 30.8797 22.2665 30.6491C22.5093 30.01 22.5331 30.1782 21.938 29.8994C21.8095 29.8418 21.7285 29.8658 21.6714 30.0003C21.5143 30.3608 21.3524 30.7164 21.1953 31.0768C21.1715 31.1296 21.162 31.1777 21.2143 31.2065C21.4191 31.2978 21.619 31.3843 21.8095 31.4708ZM24.885 36.3195C24.9469 36.3387 24.9945 36.3147 25.023 36.2426C25.0563 36.1609 25.0897 36.084 25.123 36.0071C25.3039 35.5747 25.3468 35.666 24.8992 35.4497C24.5517 35.2815 24.5469 35.2911 24.3851 35.6612C24.347 35.7525 24.3089 35.8438 24.2661 35.9351C24.2375 35.9975 24.2422 36.0456 24.3041 36.0792C24.4898 36.1705 24.6707 36.2714 24.885 36.3195ZM22.257 36.8769C22.2094 36.8673 22.1713 36.8865 22.1522 36.9298C22.0665 37.1172 21.9856 37.3046 21.9047 37.4968C21.8761 37.5641 21.9237 37.5929 21.9761 37.6266C22.5379 37.9822 22.6474 37.9437 22.8616 37.3094C22.8664 37.2902 22.8806 37.271 22.8902 37.2518C22.914 37.2037 22.8997 37.1653 22.8616 37.1412C22.6664 37.0307 22.4664 36.9394 22.257 36.8769ZM24.4041 33.59C24.4089 33.5516 24.3898 33.5227 24.3613 33.4987C24.1851 33.3786 23.9804 33.3065 23.7804 33.2392C23.7186 33.22 23.6614 33.2536 23.6329 33.3305C23.571 33.4891 23.4996 33.6477 23.4281 33.8015C23.4043 33.8591 23.3948 33.912 23.4662 33.9456C23.6471 34.0273 23.809 34.1522 24.0042 34.2051C24.0613 34.2195 24.128 34.2436 24.1613 34.1859C24.2565 33.9937 24.3422 33.7966 24.4041 33.59ZM30.9931 12.4413C30.9979 12.4028 30.9836 12.3692 30.9503 12.35C30.7741 12.2443 30.5837 12.1722 30.3885 12.1049C30.3314 12.0857 30.3076 12.1385 30.2838 12.1866C29.9838 12.7296 30.0124 12.8113 30.5789 13.0227C30.6123 13.0372 30.6456 13.0468 30.6789 13.0516C30.717 13.0612 30.7503 13.0516 30.7694 13.0131C30.8598 12.8305 30.9408 12.6431 30.9931 12.4413ZM29.0936 16.6605C29.184 16.6893 29.2364 16.646 29.2697 16.574C29.3221 16.4634 29.3744 16.3529 29.4316 16.2472C29.522 16.0838 29.503 15.9781 29.303 15.9204C29.1792 15.8868 29.065 15.8243 28.9507 15.7666C28.8698 15.7282 28.8174 15.733 28.7793 15.8195C28.7032 15.9829 28.627 16.1415 28.5556 16.3048C28.527 16.3673 28.5175 16.4298 28.6032 16.4634C28.7698 16.5307 28.9222 16.6268 29.0936 16.6605ZM27.9081 19.7023C27.8272 19.611 27.7129 19.587 27.6129 19.5437C27.113 19.3275 27.113 19.3323 26.9369 19.8513C26.8988 19.9618 26.9274 20.0291 27.0273 20.0723C27.1559 20.13 27.2844 20.1924 27.413 20.2453C27.4749 20.2741 27.5558 20.3126 27.6129 20.2501C27.7605 20.0963 27.7891 19.8801 27.9081 19.7023ZM31.1645 14.2866C31.1788 14.2385 31.1502 14.2145 31.1169 14.2001C30.9503 14.128 30.7789 14.0559 30.6075 13.9838C30.5551 13.9598 30.5123 13.9694 30.4837 14.0271C30.4075 14.2049 30.3266 14.3827 30.26 14.5605C30.2266 14.6566 30.3076 14.6854 30.3742 14.7046C30.5504 14.7575 30.7313 14.9834 30.8836 14.8536C31.0407 14.7335 31.0788 14.4836 31.1645 14.2866Z" fill="#3498DB"/>
<path d="M38.9009 5.51184C38.7343 5.43975 38.5819 5.37728 38.4343 5.3052C38.3058 5.24273 38.2344 5.26676 38.1725 5.40131C37.9297 5.9203 37.9202 5.9203 38.4486 6.15577C38.5867 6.21824 38.6343 6.2759 38.5486 6.42487C38.4724 6.55462 38.4201 6.69397 38.3677 6.83814C38.3248 6.94866 38.2725 6.95347 38.1725 6.91022C37.606 6.65553 37.0442 6.40084 36.4729 6.15577C36.3539 6.10291 36.3491 6.05485 36.3824 5.92991C36.43 5.7425 36.5871 5.61275 36.6109 5.41573C36.6205 5.32442 36.6966 5.36767 36.7442 5.38689C36.8633 5.43495 36.9823 5.483 37.0965 5.54067C37.2108 5.59833 37.2775 5.5695 37.3298 5.45417C37.5107 5.03129 37.7012 4.61322 37.8726 4.18554C37.9345 4.03176 38.0249 3.90201 38.0916 3.75305C38.1535 3.61369 38.1297 3.5368 37.9916 3.48875C37.9583 3.47433 37.9297 3.45511 37.8964 3.44069C37.6012 3.33017 37.5964 3.33017 37.6726 3.03704C37.7012 2.92651 37.7535 2.82079 37.8059 2.71507C37.863 2.59974 37.9202 2.57091 38.0582 2.64299C38.3772 2.81118 38.7105 2.93612 39.0342 3.0899C39.139 3.14276 39.3532 3.16198 39.1294 3.36861C39.039 3.4503 39.0295 3.61369 38.9723 3.73382C38.9247 3.83474 39.0057 3.86357 39.058 3.89721C39.1437 3.94526 39.2342 4.00293 39.3294 4.01254C39.596 4.05098 39.5341 4.17592 39.4484 4.34892C39.2865 4.69011 39.1437 5.0409 38.9914 5.38689C38.9723 5.43014 38.9676 5.50703 38.9009 5.51184Z" fill="#3498DB"/>
<path d="M32.1596 20.8844C32.0691 21.0959 31.9786 21.2881 31.9025 21.4851C31.7216 21.9705 31.5073 22.4414 31.3026 22.9171C31.0265 23.5563 30.7313 24.1858 30.4837 24.8393C30.4552 24.9114 30.4028 24.9691 30.3695 25.0411C30.3361 25.1036 30.3028 25.1084 30.2362 25.0796C29.8696 24.9114 29.5078 24.7432 29.1364 24.5942C29.0317 24.551 29.046 24.5077 29.0745 24.4357C29.1412 24.2723 29.2221 24.1089 29.284 23.9407C29.3221 23.8254 29.3792 23.8206 29.4744 23.8638C29.622 23.9311 29.7791 23.9839 29.9267 24.056C30.0315 24.1041 30.0886 24.0993 30.141 23.9839C30.5123 23.1334 30.8884 22.2828 31.2598 21.4323C31.3169 21.3073 31.2788 21.2112 31.1455 21.1583C31.0074 21.1007 30.8694 21.0382 30.7361 20.9805C30.6837 20.9565 30.6028 20.9421 30.5885 20.9037C30.5123 20.7066 30.6932 20.5769 30.7313 20.4039C30.7503 20.3174 30.8122 20.2789 30.9075 20.3174C31.2978 20.4664 31.6597 20.6826 32.0691 20.7931C32.1119 20.7931 32.1405 20.8604 32.1596 20.8844Z" fill="#3498DB"/>
<path d="M40.7196 9.8992C40.672 9.95687 40.6339 10.0289 40.5767 10.077C40.234 10.3701 39.9102 10.6825 39.5341 10.9276C39.4627 10.9756 39.4056 10.9852 39.3103 10.942C39.0152 10.8074 38.7057 10.6921 38.4201 10.5287C38.3391 10.4807 38.2534 10.5095 38.2344 10.6008C38.2154 10.6969 38.1582 10.7642 38.1249 10.8459C37.963 11.2063 37.9535 11.1438 37.6345 11.0093C37.6107 10.9996 37.5917 10.9708 37.5679 10.9612C37.2203 10.7834 37.2203 10.7834 37.3727 10.4278C37.4869 10.1587 37.606 9.88959 37.7202 9.62049C37.7821 9.48113 37.8678 9.41866 38.0202 9.48594C38.182 9.55802 38.3534 9.61568 38.5058 9.70218C38.6486 9.78387 38.7057 9.73582 38.7533 9.60127C38.7914 9.48594 38.8581 9.38022 38.8914 9.26489C38.9342 9.12553 39.0104 9.10631 39.1294 9.15917C39.615 9.37541 40.1054 9.58685 40.591 9.8079C40.6386 9.82232 40.7005 9.83193 40.7196 9.8992Z" fill="#3498DB"/>
<path d="M32.9165 0.403651C32.8308 0.586258 32.7594 0.754448 32.6737 0.917833C32.6071 1.04277 32.5928 1.12927 32.7594 1.16291C32.788 1.16772 32.8118 1.18694 32.8356 1.20135C33.3117 1.40799 33.3117 1.40799 33.0879 1.87892C33.0689 1.92217 33.026 1.96542 33.0213 2.00867C33.0165 2.17205 32.9308 2.1288 32.8356 2.09517C32.7166 2.04711 32.5737 2.02308 32.4785 1.94139C32.2833 1.78762 32.25 1.92698 32.2072 2.06633C32.2024 2.08555 32.1929 2.10478 32.1834 2.124C32.0691 2.43635 32.0834 2.46518 32.3928 2.59013C32.688 2.71026 32.688 2.71507 32.5452 3.0082C32.4833 3.13795 32.4309 3.2725 32.3738 3.40224C32.3405 3.47913 32.2833 3.51277 32.2024 3.46952C31.812 3.25328 31.3883 3.11392 30.9789 2.94092C30.917 2.91209 30.8789 2.89287 30.9217 2.79676C31.1026 2.40752 31.2788 2.00867 31.4407 1.60982C31.4835 1.49929 31.5216 1.47046 31.6216 1.52332C31.7549 1.60021 31.912 1.62423 32.0405 1.71073C32.1357 1.7732 32.2262 1.73956 32.2738 1.61943C32.3309 1.48007 32.3881 1.33591 32.4833 1.21096C32.5309 1.14849 32.5309 1.09083 32.4357 1.02355C32.3119 0.94186 32.1786 0.87939 32.0453 0.831335C31.8929 0.778475 31.8358 0.72081 31.931 0.557425C31.9739 0.480538 32.0024 0.39404 32.0405 0.312348C32.1881 0.0144108 32.1834 0.00960533 32.469 0.139352C32.5928 0.192212 32.7118 0.254683 32.8356 0.302737C32.8927 0.336375 32.907 0.379624 32.9165 0.403651Z" fill="#3498DB"/>
<path d="M37.0442 12.5999C36.9109 12.5037 36.7538 12.4749 36.6109 12.4124C36.3396 12.2971 36.073 12.1722 35.8016 12.0472C35.6493 11.9751 35.5778 12.0328 35.5112 12.177C35.3636 12.5037 35.1922 12.8161 35.0446 13.1429C34.978 13.2918 34.8875 13.3014 34.759 13.2582C34.6495 13.2198 34.5447 13.1477 34.4305 13.1236C34.2353 13.0804 34.2543 12.941 34.3162 12.8257C34.6162 12.2779 34.878 11.7108 35.1398 11.1438C35.2113 10.99 35.3112 10.9468 35.4779 11.0237C36.0634 11.2928 36.6586 11.5427 37.2489 11.8022C37.3441 11.8454 37.3632 11.8886 37.3346 11.9992C37.2775 12.1914 37.1584 12.35 37.1013 12.5326C37.0966 12.5662 37.0966 12.6095 37.0442 12.5999Z" fill="#3498DB"/>
<path d="M37.1775 2.28739C37.1203 2.42194 37.068 2.55169 37.0061 2.68143C36.8585 3.01301 36.868 2.98898 36.5062 2.8304C36.0206 2.62377 35.5255 2.43636 35.0446 2.20569C34.7066 2.04712 34.3686 1.89334 34.0258 1.74437C33.9306 1.70112 33.9639 1.66268 33.9972 1.60021C34.0782 1.45124 34.1781 1.30227 34.2115 1.13889C34.2495 0.961086 34.3257 1.01395 34.4162 1.05719C34.7447 1.20136 35.0732 1.35033 35.4064 1.48488C35.6588 1.58579 35.9063 1.70593 36.1729 1.79243C36.3872 1.86451 36.6205 1.96062 36.8156 2.10478C36.8871 2.15764 36.9775 2.18647 37.0727 2.19128C37.1203 2.18167 37.1727 2.21531 37.1775 2.28739Z" fill="#3498DB"/>
<path d="M43 5.1274C42.9048 5.32442 42.8096 5.53106 42.7048 5.73289C42.6763 5.79055 42.6144 5.7425 42.5715 5.72328C41.8003 5.38209 41.0242 5.0409 40.253 4.69491C40.1483 4.64686 40.0959 4.5988 40.1578 4.46906C40.2197 4.34412 40.2625 4.20956 40.3101 4.07982C40.3625 3.91643 40.4244 3.93565 40.5386 3.98371C40.9243 4.14709 41.2956 4.3345 41.686 4.47386C42.1097 4.62283 42.4715 4.90155 42.9095 5.01207C42.9667 5.02649 42.9762 5.06974 43 5.1274Z" fill="#3498DB"/>
<path d="M41.5146 8.68342C41.4765 8.842 41.2956 8.96695 41.2194 9.15436C41.2004 9.19761 41.1338 9.14955 41.0861 9.13033C40.3482 8.80356 39.6103 8.47199 38.8723 8.15002C38.6914 8.07313 38.6295 7.99144 38.7248 7.78481C38.9438 7.31868 38.9247 7.32349 39.4056 7.53012C39.934 7.75597 40.4434 8.01547 40.9862 8.20769C41.129 8.26055 41.2766 8.34704 41.4194 8.41432C41.5241 8.46237 41.5003 8.55368 41.5146 8.68342Z" fill="#3498DB"/>
<path d="M28.0509 30.923C28.2033 30.9134 28.308 31.0287 28.4366 31.0816C28.5508 31.1296 28.5937 31.096 28.6222 30.9951C28.6603 30.8461 28.7032 30.7019 28.7889 30.5674C28.8412 30.4857 28.8841 30.4473 28.9841 30.4953C29.1316 30.5674 29.2983 30.6058 29.4459 30.6779C29.5363 30.7212 29.622 30.7644 29.5506 30.9134C29.3792 31.2786 29.2269 31.6534 29.0745 32.0282C29.0269 32.1388 28.9745 32.1628 28.8508 32.1147C28.4985 31.9802 28.1747 31.7976 27.8319 31.6486C27.751 31.6102 27.6986 31.5669 27.732 31.4708C27.7938 31.3026 27.8557 31.1344 27.9224 30.971C27.9414 30.9182 27.9843 30.8749 28.0509 30.923Z" fill="#3498DB"/>
<path d="M39.577 5.89627C39.6341 5.91549 39.696 5.93472 39.7531 5.96355C40.2006 6.15577 40.6434 6.34798 41.0909 6.5402C41.1861 6.58345 41.2242 6.65073 41.1576 6.74683C41.1099 6.81892 41.0623 6.88619 41.0338 6.96788C40.9052 7.3331 40.9052 7.3331 40.5624 7.17932C40.1816 7.00633 39.8007 6.83333 39.4198 6.66995C39.277 6.60748 39.2151 6.5402 39.3008 6.38162C39.3722 6.25668 39.4151 6.12213 39.4722 5.98758C39.4913 5.94433 39.5008 5.88666 39.577 5.89627Z" fill="#3498DB"/>
<path d="M28.0319 35.32C28.0271 35.2383 27.9605 35.2046 27.8938 35.1758C27.8462 35.1518 27.7843 35.1566 27.7319 35.1326C27.4177 35.0028 27.4082 34.9692 27.5368 34.6568C27.7129 34.2243 27.7177 34.2243 28.1461 34.3829C28.2937 34.4358 28.4366 34.4934 28.3223 34.7097C28.2699 34.8106 28.2461 34.9355 28.1795 35.0316C28.0604 35.195 28.1414 35.2719 28.2842 35.3344C28.4127 35.3872 28.5413 35.4449 28.6651 35.493C28.846 35.5602 28.8079 35.6708 28.7603 35.7909C28.7365 35.8582 28.6984 35.9158 28.6651 35.9831C28.4937 36.3531 28.4318 36.3676 28.0843 36.1561C28.0319 36.1225 27.9795 36.0792 27.9224 36.0552C27.8224 36.0071 27.7891 35.9447 27.8319 35.8341C27.8653 35.7525 27.8748 35.6563 27.9081 35.5698C27.9462 35.4833 27.989 35.4065 28.0319 35.32Z" fill="#3498DB"/>
<path d="M28.3223 38.8568C28.3223 38.8952 28.3032 38.9096 28.2747 38.924C28.2033 38.9625 28.1747 39.0394 28.1271 39.097C27.8938 39.3902 27.8414 39.3902 27.4606 39.2796C27.213 39.2076 26.9845 39.0874 26.7512 38.9817C26.637 38.9337 26.5941 38.8712 26.6512 38.7318C26.9036 38.1504 26.8988 38.1456 27.4891 38.4147C27.7272 38.5252 27.9652 38.6357 28.2033 38.7559C28.2509 38.7847 28.3223 38.7895 28.3223 38.8568Z" fill="#3498DB"/>
<path d="M23.6519 40.2455C23.6138 40.4906 23.49 40.6925 23.3663 40.8943C23.3472 40.9279 23.3139 40.9568 23.2615 40.9327C23.0806 40.8462 22.8997 40.7645 22.7235 40.678C22.6378 40.6348 22.614 40.5771 22.6664 40.4714C22.7473 40.3176 22.814 40.1542 22.8664 39.9861C22.8949 39.8899 22.9378 39.8707 23.0139 39.8996C23.2091 39.9764 23.4043 40.0629 23.5995 40.1446C23.6376 40.1639 23.6709 40.1975 23.6519 40.2455Z" fill="#3498DB"/>
<path d="M25.8371 38.6165C25.7657 38.8279 25.6848 39.0394 25.5658 39.2316C25.5467 39.2652 25.5086 39.27 25.4705 39.2604C25.2515 39.2076 25.0325 39.1403 24.8516 39.0009C24.7945 38.9577 24.8088 38.9192 24.8421 38.8568C24.9278 38.7126 24.9897 38.554 25.0278 38.3858C25.0516 38.2849 25.1135 38.2032 25.242 38.2753C25.4039 38.3666 25.5991 38.381 25.7562 38.4964C25.7943 38.53 25.8467 38.5444 25.8371 38.6165Z" fill="#3498DB"/>
<path d="M28.1985 37.0595C28.1081 37.2854 28.0462 37.5113 27.9176 37.7083C27.8795 37.7659 27.8415 37.7419 27.7938 37.7227C27.6272 37.6506 27.4606 37.5929 27.294 37.5257C27.2368 37.5016 27.1797 37.4392 27.1987 37.4007C27.294 37.1845 27.2987 36.9346 27.4606 36.752C27.4796 36.728 27.5272 36.6991 27.551 36.7087C27.7558 36.8 27.9605 36.901 28.1604 36.9971C28.1747 37.0067 28.1842 37.0403 28.1985 37.0595Z" fill="#3498DB"/>
<path d="M28.7746 28.7509C28.7175 28.9816 28.5841 29.1834 28.4937 29.3997C28.4746 29.4429 28.4556 29.4429 28.4128 29.4237C28.3604 29.3949 28.2985 29.3756 28.2414 29.3468C27.7272 29.0633 27.7224 29.0633 27.9557 28.5251C27.989 28.4482 28.07 28.4049 28.1461 28.4386C28.3271 28.5299 28.527 28.5731 28.7127 28.6452C28.7603 28.6644 28.7746 28.7029 28.7746 28.7509Z" fill="#3498DB"/>
<path d="M33.683 15.1708C33.8068 15.3534 34.0163 15.3774 34.1924 15.4591C34.2972 15.5119 34.3543 15.5456 34.2781 15.6753C34.1924 15.8243 34.1353 15.9925 34.0686 16.1511C34.0353 16.2232 34.0068 16.2664 33.9115 16.2183C33.7544 16.1415 33.5926 16.0742 33.4307 16.0117C33.3498 15.9781 33.2974 15.906 33.3355 15.8483C33.4688 15.6321 33.4783 15.3534 33.683 15.1708Z" fill="#3498DB"/>
<path d="M29.6839 26.5693C29.4411 26.4972 29.2316 26.4203 29.046 26.3002C28.9888 26.2617 28.9983 26.1896 29.0269 26.1272C29.084 26.0022 29.165 25.8773 29.1983 25.7475C29.2507 25.5457 29.3506 25.5505 29.4935 25.637C29.5173 25.6514 29.5506 25.6466 29.5696 25.6658C29.703 25.7668 29.9934 25.7908 29.9886 25.9013C29.9791 26.1079 29.8267 26.3098 29.7363 26.5116C29.7172 26.5404 29.703 26.5741 29.6839 26.5693Z" fill="#3498DB"/>
<path d="M34.5638 14.82C34.3591 14.7287 34.1544 14.6374 33.9782 14.4932C33.9592 14.4788 33.9592 14.4259 33.9639 14.3923C33.9925 14.2049 34.1305 14.0559 34.1782 13.8733C34.1924 13.8156 34.2924 13.8252 34.3495 13.8493C34.5305 13.9262 34.7733 13.9598 34.878 14.0992C34.9923 14.2529 34.778 14.4403 34.7257 14.6229C34.6971 14.695 34.7352 14.844 34.5638 14.82Z" fill="#3498DB"/>
<path d="M29.3649 27.4006C29.2935 27.5544 29.2078 27.7514 29.1126 27.9388C29.0888 27.9821 29.0412 28.0061 28.9841 27.9773C28.8269 27.9052 28.6651 27.8379 28.5127 27.7562C28.4175 27.7081 28.3937 27.6313 28.4556 27.5255C28.527 27.4102 28.5937 27.2901 28.6318 27.1651C28.6794 27.0018 28.7651 26.9873 28.8984 27.0546C29.0269 27.1171 29.1554 27.1699 29.284 27.2372C29.3268 27.2564 29.3935 27.2757 29.3649 27.4006Z" fill="#3498DB"/>
<path d="M32.8308 17.4437C32.9784 17.5158 33.1736 17.6023 33.364 17.6936C33.4116 17.7177 33.3783 17.7465 33.364 17.7801C33.2926 17.9339 33.2165 18.0877 33.1546 18.2462C33.1212 18.3231 33.0879 18.3472 33.0117 18.3135C32.9022 18.2655 32.7975 18.203 32.6832 18.1742C32.4547 18.1213 32.4642 17.9916 32.5452 17.8186C32.5928 17.7225 32.6356 17.6263 32.6785 17.5254C32.6975 17.4774 32.7213 17.4341 32.8308 17.4437Z" fill="#3498DB"/>
<path d="M14.7729 34.7962C14.8491 34.7866 14.8491 34.7289 14.8539 34.6664C14.911 34.8346 14.9681 34.998 15.0252 35.1662C15.0348 35.195 15.0586 35.2383 15.0062 35.2575C14.9538 35.2767 14.9586 35.2335 14.9443 35.1998C14.8967 35.0605 14.7824 34.9499 14.7729 34.7962Z" fill="#3498DB"/>
</g>
<defs>
<clipPath id="clip0_3627_3984">
<rect width="43" height="41" fill="white"/>
</clipPath>
</defs>
</svg>
